<svg xmlns="http://www.w3.org/2000/svg" xmlns:xlink="http://www.w3.org/1999/xlink" width="830" height="644" viewBox="0 0 830 644"><defs><style>.a{fill:none;}.b{clip-path:url(#a);}.c{fill:#6a75ff;}.d{fill:#fff;}.e{fill:#4386be;}.f{fill:#6c6d70;}.g{fill:#5046ae;}.h{fill:#5a66f5;}.i{fill:#1fc4d5;}.j{fill:#c44692;}.k{fill:#eb5eb3;}.l{fill:#453eaa;}.m{fill:#5062ee;}.n{fill:#644186;}.o{fill:#785297;}.p{fill:#9466bc;}</style><clipPath id="a"><path class="a" d="M0-331.291H830v644H0Z" transform="translate(0 331.291)"/></clipPath></defs><g class="b"><g transform="translate(35.963 58.352)"><path class="c" d="M302.762,10.744C284.329-2.368,259.524-3.079,237.524,2.183s-42.315,15.8-63.472,23.807S129.72,39.516,107.734,34.2C82.83,28.175,63.2,9.29,39.854-1.254c-29.29-13.226-63.522-12.6-94.287-3.312s-58.5,26.651-84.109,46.065A554.276,554.276,0,0,0-290.722,218.927c-17.054,31.536-31.3,66.089-30.114,101.923s21.2,73,54.987,84.984c21.813,7.741,50.577,7.023,61.456,27.458,9.391,17.637-1.794,39.077-.527,59.017,1.971,30.951,35.338,52.525,66.336,51.794s59.1-17.859,83.909-36.46c9.212-6.909,18.5-14.251,29.548-17.507s24.493-1.388,31.6,7.675c8.584,10.94,4.808,26.8,7.873,40.365,3.59,15.888,17.19,28.379,32.722,33.278s32.6,2.978,47.924-2.537c39.579-14.249,67.075-50.005,89.244-85.762s42.193-74.316,75-100.646c31.9-25.6,73.309-37.391,104.487-63.869,34.394-29.211,53.187-75.826,48.672-120.729-2.5-24.816-15.1-52.037-39.283-58.1-15.128-3.795-30.81,1.67-46.251,3.866s-34.162-.655-41.312-14.517c-14.63-28.362,21.009-38.7,32.343-56.626,12.378-19.575,2.577-49.2-15.132-61.791" transform="translate(320.904 11.382)"/></g><g transform="translate(337.827 48.827)"><path class="d" d="M237.21,46.191a26.217,26.217,0,0,0-7.731-2.615c-3.125-.694-9.918-.568-12.883-2.556a.635.635,0,0,0,.128-.35c-.014-2.125,11.63-2.074,17.064-2.327.507.008,1.014.017,1.524.023a3.972,3.972,0,0,0,1.613-.189c1.64-.719.814-2.964-.15-3.876a.615.615,0,0,0-.292-.159c-4.1-2.263-9.562-2.158-14.106-2.387-5.873-.3-15.631.474-20.4-3.833-.066-4.329,5.654-7.4,6.934-11.5a8.709,8.709,0,0,0,.216-4.638,8.407,8.407,0,0,0-3.642-5.408.878.878,0,0,0-1.335.317c-3.133,8.3-10.913,11.018-17.586,15.713a12.938,12.938,0,0,0-5.463,7.117c-15.18,8.786-36.784,6.446-53.634,8.88-16.228,2.344-29.175,10.668-44.476,15.582a80.713,80.713,0,0,1-13.733,2.97c-.6-2.125-1.547-4.255-3.329-5.268-14.5-4.679-30.2.447-43.885,1.194a23.141,23.141,0,0,0-4.39-5.789c-4.892-4.578-11.816-8.74-18.677-8.61a33.45,33.45,0,0,0,3.372-2.65c12.739-5.289,21.9-18.51,22.138-32.246a19.558,19.558,0,0,0,2.011-8.11c.154-3.423-1.269-6.837-1.172-10.13.087-2.908,1.1.809,1.621,2.027a16.636,16.636,0,0,1,.711,10.2c-.157.735.888.96,1.209.358a17.482,17.482,0,0,0,.882-15.38.364.364,0,0,0,.418-.229c2.571-5.871-4.828-13.535-9.142-16.723a23.636,23.636,0,0,0-6.468-3.363C9.1-45.686.135-50.277-9.571-48.588c-5.444.947-10.324,3.756-15.381,5.808-6.145,2.5-13.412,2.865-19.188,6.2-3.613,2.086-5.249,4.448-7.035,8.03-2.979,5.972-2.429,5.647-5.2,9.786a16.116,16.116,0,0,0-2.41,5.3c-1.533,5.7-.045,11.922.657,17.608a116.644,116.644,0,0,1-.223,29.145.353.353,0,0,0,.049.185c-.674,3.379-1.355,6.763-2.006,10.149a7.933,7.933,0,0,0-1.491-.914c-7.031-5.011-14.718-3.5-21.374.741-11.774.5-25.77-.142-33.311-2.368a26.124,26.124,0,0,0-2.851,2.029c-.684-.089-1.37-.157-2.056-.2-10.959-7.025-22.478-13.069-35.62-14.434-13.309-1.384-25.566-.255-37.958-4.131-5.488-5.972-7.811-12.321-9.344-20.351-.733-3.847,1.092-10.791-1.73-13.975-.01-.039-.041-.06-.062-.093-.008-.008-.01-.019-.018-.025s-.016,0-.021-.01c-.047-.054-.074-.119-.163-.148-2.874-.91-4.077,4.141-4.487,7.888-.391-1.652-.779-3.3-1.187-4.965-.575-2.352-1.009-6.2-3.457-7.332a.241.241,0,0,0-.274.054,3.7,3.7,0,0,0-1.063-2.1.337.337,0,0,0-.194-.084.431.431,0,0,0-.548-.391c-4.5,1.155-4.816,6.491-4.892,10.441-.113,5.927.14,12.462,1.728,18.236a21.327,21.327,0,0,1-4.243-10.118c-.391-3.165-.29-5.585-1.625-8.575a.568.568,0,0,0-.189-.227,2.55,2.55,0,0,0-2.779-.811,3.81,3.81,0,0,0-2.75,3.089,31.03,31.03,0,0,0,1.99,14.235c2.28,6.477,7.2,15.466-1.551,20.081-4.69,2.473-17.415-1.365-19.561,4.817a.588.588,0,0,0-.014.336.555.555,0,0,0,.313.445c4.868,2.434,10.965,1.81,16.286,2.088,6.787.356,13.571.68,20.362.861,11.132,1.932,19.291,7.624,28.324,13.973,7.148,5.027,14.949,8.761,22.847,12.453,8.8,4.115,18.183,6.539,27.216,9.626a67.507,67.507,0,0,0-1.57,10.853,5.708,5.708,0,0,0,4.46,5.927c1.971.432,4.089.875,5.345,1.242-17.307,24.82-27.537,56.058-16.5,85.579a.983.983,0,0,0,.76.655,61.478,61.478,0,0,1-7.391,13.745c-5.166,7.076-11.268,15.293-13.61,23.873a8.04,8.04,0,0,0,5.378,9.7,39.3,39.3,0,0,1,9.34,4.638,62.02,62.02,0,0,1-8.666,41.619c-6.719,10.715-16.531,19.044-25.434,28.025s-14.071,21.193-20.517,32.073c-4.979,8.4-13.06,14.809-17.114,23.7a31.009,31.009,0,0,0,6.614,34.362c11.9,11.366,31.64,11.735,46.668,18.94a15.47,15.47,0,0,0,10.429.851,19.584,19.584,0,0,1,10.118.488c5.006,1.507,9.486,4.356,14.251,6.5a33.874,33.874,0,0,0,6.027,2.1c-1.384,4.041-1.446,8.124-2.476,12.509-1.04,4.426-3.525,8.236-4.806,12.563-1.942,6.559-2.849,15.718.515,22.007,9.014,16.852,25.805-1.582,33.365-9.931,6.478-7.154,7.585-15.355,8.4-24.7.665-7.665,1.741-14.439,5.922-21.126,2.371-3.794,5.387-7.175,7.14-11.335,2.052-4.869,2.738-11.341-.966-15.629-4.627-5.357-14.055-5.035-21.215-5.083a6.062,6.062,0,0,0-5.807-2.4c-5.117.783-10.328.974-14.906-1.238-2.727-1.318-5.01-3.4-7.663-4.862-7.049-3.886-16.187-3.128-22.649-7.931,3.213-3.991,7.158-6.65,8.992-11.434,3.459-9.016,12.009-15.05,20.713-19.229s18.094-7.122,25.976-12.7c8.063,2.379,15.973,6.452,23.654,10.518a163.745,163.745,0,0,1,51.753,43.139L4.98,405.292c3.9,4.936,7.922,9.976,13.3,13.246,9.383,5.707,22.859,5.33,31.3-1.7,2.8-13.357,14.78-22.631,21.164-34.691,4.124-7.8,5.825-16.6,7.924-25.164A247.56,247.56,0,0,1,112.572,279.8c-.488-1.277-1.059-2.527-1.675-3.758,4.462-7.06,13.622-6.963,21-10.425,7.539-3.532,14.852-4.15,22.993-5.388a166.2,166.2,0,0,0,23.557-4.9c3.323-1.022,5.432-1.7,6.744-4.84a.733.733,0,0,0,.183-.713c-2.3-10.153-16.259-17.818-25.148-21.43-13.769-5.6-26.35-4.24-40.636-2.2-9.8,1.4-18.939-.146-28.6-1.635-4.237-.651-9.735-2.057-14-.472-3.362,1.25-3.852,2.817-4.3,6.219-1.1,8.47,1.564,15.621-.923,23.974-.352-.165-.717-.3-1.063-.482-.772,2.337-2.212,5.181-2.985,7.519-4.266,3.32-5.72,9.066-6.47,14.42s-1.16,11.024-4.161,15.52c-3.37,5.05-9.521,7.824-12.549,13.085-4.1,7.111-1.4,16.858-9.41,22.567A5.287,5.287,0,0,1,31.7,327.9c-4.847-.381-8.256-4.922-9.954-9.449-1.675-4.469-2.355-9.366-4.88-13.417-2.074-3.326-5.29-5.894-6.969-9.438a25.267,25.267,0,0,1-1.722-6.075c-.81-4.146-2.789-7.764-3.6-11.914-3.792-3.686-7.41-7.752-9.327-12.684a18.99,18.99,0,0,1-1.236-5.46,30.4,30.4,0,0,0-7.758-18.737c-1.407-1.5-2.723-3.089-3.992-4.708a5.333,5.333,0,0,0,1.228-6.407c-.037-.072-.064-.15-.1-.222,8.578-1.507,15.2-1.853,21.78-9.881,7.7-9.389,13.558-19.153,13.921-31.55.35-11.943-.9-24.126-1.267-36.073-.332-10.927-.583-21.877-1.427-32.78a21.812,21.812,0,0,1,3.761-.546c19.882-1.075,29.461,2.292,39.169-1.993,4.34-.385,9.395-17.379,11.715-28.89q6.119-2.2,12.248-4.362a195.3,195.3,0,0,1,31.1-8.617c23.858-4.31,45.3-17.68,69.178-21.072a92.046,92.046,0,0,1,25.858,10.287c3.6,2.047,12.883,10.274,17.143,9.134a3.33,3.33,0,0,0,2.357-3.664c-.639-5.855-12.712-7.564-13.758-13.9,1.912-2.525,11.47-.535,14.042-.329a79.784,79.784,0,0,0,9.851.313.6.6,0,0,0,.2-.008.625.625,0,0,0,.488-.257c1.378-.974.824-2.327-.237-3.344,3.143-1.571-.523-4.617-2.3-5.665" transform="translate(251.424 48.936)"/></g><g transform="translate(641.634 149.242)"><path class="e" d="M2.725,3.6c3.782-.154,7.844.144,11.573-.737-.577-2.48-1.522-5.274-3.644-6.479C8.178-3.684,7.131-4.1,5.4-3.482,1.749-2.172.086.647-2.385,3.37c-.163.181-.336.356-.5.537,1.872-.113,3.741-.227,5.613-.3" transform="translate(2.888 3.818)"/></g><g transform="translate(630.973 183.726)"><path class="e" d="M7.785,2.344q-1.4.452-2.816.875A1.454,1.454,0,0,1,3.834,4.571C-.253,5.744-4.093,7.474-8.252,8.288c.464,4.516,1.4,8.429,5.844,9.931,1.977.669,3.524,10.627,11.758,9.9,4.559-.4,9.916-19.148,12.051-30.6C16.825-1.01,12.358.864,7.785,2.344" transform="translate(8.252 2.483)"/></g><g transform="translate(584.443 136.226)"><path class="f" d="M.27.71C7.812-.243,16.4,4.772,21.516,10.089c4.866,5.054,6.74,11.617,8.093,18.327.239,1.192,2.148.956,1.875-.218C29.8,20.93,27.807,13.149,22.171,7.873,16.482,2.548,8.042-2.23.149-.325-.481-.171-.414.8.27.71" transform="translate(0.286 0.752)"/></g><g transform="translate(565.843 214.179)"><path class="f" d="M18.759.266c.284,18.924.338,37.875,1.067,56.789.548,14.251.363,25.794-8.233,37.93-4.441,6.271-9.3,13.034-17.31,14.49-4.489.816-8.977.865-13.422,2.016-1.31.34-.75,2.657.583,2.327C-7.186,111,.778,112.461,8.692,102.808c7.7-9.389,13.556-19.155,13.921-31.55.35-11.943-.9-24.126-1.265-36.073C20.99,23.5,20.757,11.8,19.76.15c-.056-.657-1.011-.521-1,.117" transform="translate(19.883 0.282)"/></g><g transform="translate(579.126 300.984)"><path class="f" d="M.365,6.439C1.883,5.156,14.753-5.314,9.218-6.813a.342.342,0,0,0-.327.535C11.19-3.7,1.352,4.17-.218,5.642c-.451.424.089,1.215.583.8" transform="translate(0.387 6.822)"/></g><g transform="translate(583.81 231.209)"><path class="f" d="M2.568,32.816C4.822,22.237,4.051,11.637,2.743.977,1.3-10.77.337-22.358-.555-34.136a.736.736,0,0,0-1.452-.029c-3.613,22.279,7.832,44.224,4.05,66.9a.266.266,0,0,0,.525.082" transform="translate(2.722 34.766)"/></g><g transform="translate(591.177 218.959)"><path class="f" d="M.482.165Q2.121,23.88,3.874,47.581C5.069,63.838,9.73,84.375-.309,98.492a.94.94,0,0,0,1.458,1.184C11.883,88.932,7.514,69.417,6.278,55.992,4.564,37.36,2.737,18.73,1.1.093c-.035-.4-.649-.33-.622.072" transform="translate(0.511 0.175)"/></g><g transform="translate(788.964 105.431)"><path class="f" d="M3.208.317C8.957,7.121-.106,11.358-2.735,16.5c-.976,1.907-.945,3.635.538,5.151A.733.733,0,0,0-1.017,21c-1.166-4.92,5.426-8.143,6.81-12.587a8.57,8.57,0,0,0-1.9-8.6c-.358-.4-1.04.08-.684.5" transform="translate(3.4 0.336)"/></g><g transform="translate(770.045 103.958)"><path class="f" d="M13.279,5.292c2.237-3.975,1.013-8.157-2.668-10.721a.876.876,0,0,0-1.333.317C6.143,3.186-1.637,5.906-8.309,10.6c-3.885,2.733-6.647,6.563-5.508,11.473a.706.706,0,0,0,1.4-.163c-.828-9.014,9.923-12.354,15.7-16.9a26.686,26.686,0,0,0,5.271-5.3c.41-.568,1.028-2.123,1.541-2.455,3.605-2.319,2.884,6.522,2.493,7.729a.377.377,0,0,0,.688.309" transform="translate(14.075 5.606)"/></g><g transform="translate(598.048 126.71)"><path class="f" d="M84.066.044C68.849,9.433,46.73,6.925,29.562,9.406,13.334,11.748.386,20.072-14.915,24.988c-12.267,3.938-25.924,3.995-38.654,5.079-11.3.964-24.793,1.238-35.13,6.473a.68.68,0,0,0,.5,1.264c12.932-3.95,26.367-5.264,39.771-6.629,12.308-1.252,25.112-1.339,36.858-5.614,7.791-2.834,15.023-7,22.795-9.883,8.827-3.275,18.14-4.632,27.469-5.542,14.251-1.386,34.151.148,46-9.237a.53.53,0,0,0-.626-.855" transform="translate(89.104 0.046)"/></g><g transform="translate(820.784 131.881)"><path class="f" d="M2.113.622c.334.317.877,1.271.538,1.557a1.528,1.528,0,0,1-.6.124C.786,2.43-.5,2.368-1.766,2.447c-.608.037-.647,1.081-.019,1.092,1.108.025,2.216.039,3.325.051A3.972,3.972,0,0,0,3.153,3.4C4.793,2.682,3.967.437,3-.472,2.34-1.1,1.456,0,2.113.622" transform="translate(2.24 0.659)"/></g><g transform="translate(789.508 124.858)"><path class="f" d="M.061.442C3,4.407,8.113,4.316,12.68,4.747c7.051.669,16.78-.371,23.04,3.186.789.447,1.36-.844.579-1.289-4.118-2.339-9.651-2.218-14.244-2.451C15.912,3.882,5.5,4.757,1.012-.254.514-.808-.4-.18.061.442" transform="translate(0.065 0.468)"/></g><g transform="translate(804.649 134.867)"><path class="f" d="M10.138.314C5.254-.94-.708-.018-5.734.176-7.919.261-11.189.411-10.7,3.383a.643.643,0,0,0,1.277-.15C-9.438.629,8.1,1.3,10.177.66c.189-.058.117-.305-.039-.346" transform="translate(10.746 0.333)"/></g><g transform="translate(804.669 138.111)"><path class="f" d="M.01.162C1.081,2.884,4.061,2.578,6.64,3.02c2.406.412,4.82.84,7.2,1.386.078.016,12.563,3.812,9.513,5.89a.639.639,0,0,0,.608,1.106c3.372-1.551-.383-4.669-2.183-5.731A26.157,26.157,0,0,0,14.05,3.058C10.643,2.3,2.867,2.526.454-.081.267-.281-.1-.128.01.162" transform="translate(0.011 0.172)"/></g><g transform="translate(769.687 149.727)"><path class="f" d="M16.115,1.677c.426,3.45,3.648,5.307,6.174,7.443.367.309,6.033,4.277,6.044,4.953.1,6.265-7.525-.124-9.134-1.083C8.063,6.35-3.217-.819-16.46-1.775a.552.552,0,0,0-.169,1.091A90.354,90.354,0,0,1,11.9,10.166c3.6,2.047,12.881,10.274,17.141,9.134A3.325,3.325,0,0,0,31.4,15.636c-.647-5.929-13.037-7.6-13.812-14.13a.743.743,0,0,0-1.475.171" transform="translate(17.08 1.777)"/></g><g transform="translate(802.863 150.666)"><path class="f" d="M12.36.535C6.246.848.213-.041-5.874-.414c-2.678-.165-5.673-.686-7.133,1.979-.455.83.863,1.392,1.325.6C-10.06-.612-.133,1.47,2.491,1.682a78.674,78.674,0,0,0,10.038.309c.939-.045.77-1.5-.169-1.456" transform="translate(13.1 0.567)"/></g><g transform="translate(807.356 144.66)"><path class="f" d="M.125.34A51.659,51.659,0,0,1,10.76,2.094c1.726.494,3.422,1.063,5.123,1.639.22.074,6.384,2.173,4.608,3.157-.715.395-.029,1.658.7,1.262,2.628-1.438.185-3.952-1.7-4.731C13.671,1.009,6.422-.766.137-.28-.209-.255-.231.313.125.34" transform="translate(0.132 0.36)"/></g><g transform="translate(605.503 150.189)"><path class="f" d="M81.289,0C69.8.763,59.295,5.634,48.637,9.631,36.119,14.325,23.4,18.6,10.189,20.857.044,22.587-8.553,25.474-18.216,28.876c-22.35,7.869-44.709,16.061-67.333,23.111-1.187.369-.474,2.166.707,1.8,22.13-6.9,43.852-15.219,65.718-22.9a195.243,195.243,0,0,1,31.1-8.617C35.921,17.941,57.433,4.478,81.423,1.15A.579.579,0,0,0,81.289,0" transform="translate(86.16 0.001)"/></g><g transform="translate(465.287 140.621)"><path class="f" d="M8.978,1.2C5.789.416,2.483.078-.764-.4A41.972,41.972,0,0,0-9.271-1.24a.283.283,0,0,0-.084.535A41.924,41.924,0,0,0-.959.864c3.255.453,6.52,1.054,9.8,1.194A.435.435,0,0,0,8.978,1.2" transform="translate(9.516 1.269)"/></g><g transform="translate(386.796 119.266)"><path class="f" d="M40,10.813C28.641,3.423,16.718-3.062,3.04-4.485c-15.863-1.648-30.231.3-45.114-6.948a.234.234,0,0,0-.243.393c9.165,7.027,21.05,7.027,32.1,7.189C-.087-3.706,9.228-3.274,18.827.484c7.313,2.861,13.985,7.1,20.78,10.975.373.212.762-.408.4-.645" transform="translate(42.402 11.456)"/></g><g transform="translate(374.042 134.523)"><path class="f" d="M49.894,23.438C35.274,10.742,16.673,9.6-.49,1.526A200.471,200.471,0,0,1-29.65-15.64c-7.115-4.922-14.092-8.186-22.746-9.187a.436.436,0,0,0-.132.861C-41.18-22.108-32.942-16.336-23.8-9.908-16.648-4.881-8.849-1.147-.949,2.545c16.827,7.865,35.766,9.523,50.334,21.519.4.332.9-.286.509-.626" transform="translate(52.884 24.831)"/></g><g transform="translate(361.577 90.218)"><path class="f" d="M.026.369C1.6,3.892,1.134,7.334,2,10.995a20.832,20.832,0,0,0,4.643,8.946c.428.494,1.244-.08.832-.608A21.684,21.684,0,0,1,2.717,8.524C2.329,5.359,2.428,2.939,1.091-.05.791-.721-.275-.307.026.369" transform="translate(0.027 0.391)"/></g><g transform="translate(356.969 89.405)"><path class="f" d="M.556,1.642A2.651,2.651,0,0,1,2.274-.463c.509-.173,1.485-.294,1.8.3.34.645,1.411.233,1.065-.42A2.488,2.488,0,0,0,2.173-1.624,3.807,3.807,0,0,0-.577,1.467c-.138.725,1,.9,1.133.175" transform="translate(0.589 1.74)"/></g><g transform="translate(337.82 92.141)"><path class="f" d="M.544,19.466c2.363-6.879,20.049.278,24.159-8.645,1.407-3.054.27-6.778-.538-9.84-1.924-7.292-5.273-13.118-4.449-20.959.076-.731-1.055-.91-1.133-.175a31.012,31.012,0,0,0,1.99,14.235c2.28,6.475,7.2,15.464-1.553,20.079C14.331,16.634,1.605,12.8-.54,18.978c-.249.719.836,1.211,1.084.488" transform="translate(0.577 20.623)"/></g><g transform="translate(337.831 131.384)"><path class="f" d="M18.653,1.652C12.414,1.135,6.168.766-.082.426-5.87.109-13.667.941-18.961-1.685c-.68-.338-1.158.737-.484,1.075C-14.577,1.823-8.48,1.2-3.157,1.479c7.23.377,14.457.737,21.695.906.464.012.6-.692.115-.733" transform="translate(19.771 1.75)"/></g><g transform="translate(366.813 80.558)"><path class="f" d="M1.1,14.311c-.031-6.73-5.24-25.354,2.952-28.667.521-.21.2-.921-.313-.789C-.758-13.988-1.07-8.652-1.146-4.7-1.265,1.514-1,8.411.809,14.385c.052.181.3.087.3-.074" transform="translate(1.17 15.161)"/></g><g transform="translate(371.314 80.963)"><path class="f" d="M.167.388c.257,0,2.69,21.274,3.263,23.284.115.4.773.229.705-.177A131.646,131.646,0,0,1,2.029,7.825C1.914,5.392,2.975,1.482.981-.324a.411.411,0,0,0-.4-.062L.019-.2c-.358.117-.175.593.148.593" transform="translate(0.177 0.411)"/></g><g transform="translate(373.421 83.071)"><path class="f" d="M.049.239c3.137,2.449,3.337,9.043,4.085,12.7.684,3.347,1.31,6.821,2.94,9.854a.314.314,0,0,0,.583-.229C6.161,17.431,5.063,12.289,3.792,7.1,3.217,4.753,2.784.9.335-.228A.277.277,0,0,0,.049.239" transform="translate(0.052 0.253)"/></g><g transform="translate(382.244 87.503)"><path class="f" d="M.058.348C2.243,2.675.781,8.9,1.314,12.185c.476,2.908,1.024,5.843,1.788,8.691a29.685,29.685,0,0,0,9.08,14.986c.463.412,1.009-.311.595-.735-6.1-6.232-8.538-12.812-10.147-21.243C1.887,10,3.78,2.926.82-.21.408-.645-.358-.1.058.348" transform="translate(0.062 0.369)"/></g><g transform="translate(378.271 87.397)"><path class="f" d="M.289,5.569C.485,4.314,1.523-5.707,3.972-4.92c.581.187.976-.688.393-.873C.308-7.076-.43,3.522-.29,5.56a.294.294,0,0,0,.579.01" transform="translate(0.306 5.9)"/></g><g transform="translate(697.396 346.728)"><path class="f" d="M36.643.261C34.005,7.054,14.161,8.395,7.72,9.361.45,10.448-6.471,10.531-13.3,13.449c-4.336,1.854-7.821,3.517-12.508,4.582-2.742.62-5.2.737-7.673,2.333a11.684,11.684,0,0,0-5.354,8.825c-.1.77,1.075,1.186,1.36.4,3.644-9.949,14.137-9.344,22.389-13.213,7.539-3.532,14.85-4.152,22.991-5.389a166.735,166.735,0,0,0,23.557-4.9c3.411-1.05,5.547-1.715,6.851-5.072.428-1.1-1.246-1.854-1.673-.754" transform="translate(38.838 0.277)"/></g><g transform="translate(660.293 321.077)"><path class="f" d="M.4,16.18A29.524,29.524,0,0,0,3.364,3.146c-.041-6.287-3.6-16.1,5.473-18.193,5.088-1.172,11.8.927,16.873,1.7a85.7,85.7,0,0,0,16.312,1.388c12.152-.459,23.154-4.181,35.439-1.646,11,2.267,31.783,10.594,34.629,23.131.258,1.139,2.085.943,1.823-.21C111.612-.833,97.654-8.5,88.764-12.111c-13.769-5.595-26.35-4.238-40.634-2.2-9.807,1.4-18.939-.144-28.6-1.633-4.237-.651-9.737-2.057-14-.472-3.364,1.25-3.852,2.817-4.3,6.219C.041-1.041,3.267,6.57-.387,15.826A.43.43,0,0,0,.4,16.18" transform="translate(0.42 17.142)"/></g><g transform="translate(663.168 330.655)"><path class="f" d="M51.154,10.109C46.765,3.146,37.5.564,30.166-2.031A162.2,162.2,0,0,0-1.114-9.723c-9.655-1.37-17.326,1.612-26.781,2.276-8.532.6-17.905-5.836-25.928-2.078-.781.365-.3,1.619.494,1.254,6.909-3.194,15.487,1.956,22.622,2.1,9.086.185,17.06-3.793,26.332-2.908A141.706,141.706,0,0,1,23.38-3.166C32.827-.275,43.945,2.753,50.477,10.6a.42.42,0,0,0,.676-.5" transform="translate(54.219 10.71)"/></g><g transform="translate(662.355 343.651)"><path class="f" d="M20.294,11.512C12.215,8.046,13.61,2.335,9.785-3.73,7.937-6.661,4.163-8.269,1.162-9.583a26.233,26.233,0,0,0-12.384-2.566c-4.522.311-5.753,2.78-9.815,4.047-.925.29-.361,1.625.544,1.382,4.907-1.314,8.182-4.446,13.857-3.793C2.882-9.418,7.065-5.3,10.681,2.977c2.066,4.733,4.143,7.624,9.23,9.387.558.194.943-.61.383-.851" transform="translate(21.51 12.196)"/></g><g transform="translate(726.403 346.672)"><path class="f" d="M5.185,5.255A30.729,30.729,0,0,1-.439-2.9C-1.075-4.309-1.817-6.084-3.71-5.425c-1.736.6-2,2.731-1.656,4.288C-4.769,1.592-2.507,4-.717,6.017-.231,6.565.7,5.892.208,5.34A35.052,35.052,0,0,1-2.929,1.386c-.544-.832-1.617-2.366-1.43-3.46q2.353-2.487,2.853-.4.219.5.463.986A18.123,18.123,0,0,0,4.69,5.725c.3.2.779-.159.5-.47" transform="translate(5.496 5.567)"/></g><g transform="translate(716.541 346.755)"><path class="f" d="M5.288,5.89c-1.174-1.674-2.67-3.1-3.84-4.772S-.121-2.589-1.044-4.38C-1.816-5.875-2.869-7.029-4.5-5.562-6.083-4.135-5.755-1.753-4.822-.088c1.695,3.029,4.655,5.694,6.845,8.38.466.57,1.393-.1.925-.676C1.323,5.622-.319,3.649-2,1.7A11.977,11.977,0,0,1-4.117-1.149c-.717-1.629.15-4.959,2.231-2.447C-.77-2.249-.651-.068.334,1.425A32.325,32.325,0,0,0,4.7,6.448c.34.334.845-.191.587-.558" transform="translate(5.605 6.24)"/></g><g transform="translate(707.393 347.341)"><path class="f" d="M.5.114C-1.336,2.358-.385,4.7.878,7c1.848,3.371,3.555,7.15,6.441,9.768.6.544,1.384-.43.789-.972A22.259,22.259,0,0,1,3.947,9.886C2.662,7.595-.708,3.619,1.5.931A.648.648,0,0,0,.5.114" transform="translate(0.525 0.121)"/></g><g transform="translate(708.255 346.824)"><path class="f" d="M5.617,7.624A24.77,24.77,0,0,1-1.3-4.49c-.282-1.192-.1-2.55-1.265-3.252a2.9,2.9,0,0,0-3.111.307c-.7.437.058,1.46.76,1.036C-2.792-7.684-2.432-3.627-2.088-2.55A20.915,20.915,0,0,0-.442,1.273,25.325,25.325,0,0,0,5.2,8.143c.332.284.725-.225.422-.519" transform="translate(5.954 8.077)"/></g><g transform="translate(452.767 475.593)"><path class="f" d="M15.322.535C23.663,1.411,38.132.3,40.2,10.276c1.982,9.541-5.123,15.126-9.414,22.765-5.745,10.231-3.4,21.846-6.785,32.679-2.657,8.508-8.882,13.553-15.239,19.41C6.481,87.235,2.992,91.525,0,92.017l-11.375-3.771a18.6,18.6,0,0,1-3.049-9.479c-.645-7.288,1.817-13.592,4.5-20.164,2.733-6.7,2.422-13.955,5.22-20.668A.712.712,0,0,0-6,37.352c-2.664,5-2.422,9.959-3.7,15.386-1.04,4.428-3.525,8.238-4.806,12.564-1.94,6.559-2.847,15.718.515,22.009,9.014,16.852,25.805-1.584,33.367-9.933,6.478-7.152,7.585-15.353,8.4-24.7.667-7.663,1.743-14.437,5.922-21.124,2.371-3.795,5.387-7.175,7.14-11.335,2.054-4.871,2.74-11.341-.964-15.629-5.35-6.2-17.12-4.8-24.377-5.153-.7-.037-.9,1.022-.171,1.1" transform="translate(16.24 0.566)"/></g><g transform="translate(462.705 477.514)"><path class="f" d="M18.813.269c9.163,10.089.383,20.075-4.956,29.1C10.376,35.246,9.041,40.959,8.17,47.722,6.876,57.763,5.2,65.75-.865,74.074-5.584,80.547-11.7,88.768-19.722,90.862c-.4.1-.187.653.163.651,7.576-.037,12.566-7.546,16.933-12.869,6.876-8.38,10.687-16.56,12-27.343.933-7.657,1.617-14.575,5.56-21.364,2.5-4.3,5.8-8.236,7.653-12.9,2.49-6.269,2.721-13.176-3.255-17.264-.313-.212-.814.169-.519.494" transform="translate(19.94 0.285)"/></g><g transform="translate(461.651 514.818)"><path class="f" d="M3.185.447C9.167,1.155,13.742,3.659,16,9.508c.237-.3.474-.595.711-.89-3.485-.173-6.851-3.76-10.331-4.64a18.13,18.13,0,0,0-9.3.253c-.875.237-.358,1.58.523,1.324A16.938,16.938,0,0,1,9.737,6.32c2.422,1.184,4.04,3.18,6.773,3.6a.668.668,0,0,0,.713-.892C15.653,3.237,9.305-1.537,3.2-.268,2.824-.19,2.754.4,3.185.447" transform="translate(3.376 0.474)"/></g><g transform="translate(460.34 522.942)"><path class="f" d="M.4.76a13.924,13.924,0,0,1,9.836,1.369c1.3.673,3.939,1.8,4.8,3.087,2.48,3.713-1.209,1.5-2.247.939C9.194,4.208,4.013,2.424.007,4.014A.7.7,0,0,0,.516,5.307c2.758-1,5.449-.187,8.168.5a22.463,22.463,0,0,1,4.274,1.487,9.152,9.152,0,0,0,2.293,1.022c1.234.2,2.264-.22,2.163-1.687-.161-2.389-4.447-4.247-6.215-5.233C7.775-.517,3.954-1.559.167-.16-.327.023-.142.88.4.76" transform="translate(0.42 0.805)"/></g><g transform="translate(585.884 58.747)"><path class="f" d="M.191,1.36C7.479-1.062,14.916-.63,21.526,3.543c5.043,3.184,11.262,9.663,10.984,16.111-.019.455.608.719.818.241C35.9,14.025,28.5,6.36,24.185,3.172,16.941-2.178,8.137-2.753-.023.818a.292.292,0,0,0,.214.542" transform="translate(0.202 1.441)"/></g><g transform="translate(607.75 67.714)"><path class="f" d="M.052.234C4.112,3.342,7.707,7.226,9.62,12.058a18.133,18.133,0,0,1,.97,9.889c-.808,5.608.435,3.347.216,1.367-.529-4.778-1.745-8.335-5.109-11.84-.437-.457-1,.177-.878.641,2.42,8.944,2.855,17.1-3.106,24.814-.393.509.284,1.3.8.848,3.663-3.2,5.208-7.682,5.424-12.5.152-3.423-1.269-6.837-1.172-10.132.086-2.908,1.1.809,1.621,2.029a16.631,16.631,0,0,1,.711,10.2c-.159.735.886.962,1.207.36C16.226,16.613,9.713,6.238.4-.194c-.29-.2-.634.21-.348.428" transform="translate(0.055 0.248)"/></g><g transform="translate(544.209 64.493)"><path class="f" d="M30.852,18.911c4.493-11.036-.338-22.65-8.17-30.965C17.226-17.843,9.931-19.266,2.273-19.8c-6.625-.463-14.914-.641-20.628,3.353a10.731,10.731,0,0,0-4,5.3c-1.407,3.435-1.376,6.753-3.957,9.828-2.054,2.447-4.425,3.874-6.248,6.588-.536.8.587,1.751,1.178.958,3.986-5.348,8.633-7.4,10.2-13.915,1.135-4.712,1.625-7.167,6.577-9.1a32.656,32.656,0,0,1,10.09-1.66C.9-18.713,7.272-18.55,12.531-16.946,25.408-13.02,35.061,6.373,30.349,18.685c-.126.329.369.556.5.225" transform="translate(32.701 20.035)"/></g><g transform="translate(532.35 84.105)"><path class="f" d="M5.231,2.524C6.167.162,5.038-2.459,2.286-2.661-1.785-2.962-3.556,2.086-4.43,5.1c-1.209,4.158-1.938,9.368.538,13.254,1.695,2.659,4.589,3.585,6.761,1a.47.47,0,0,0-.534-.729c-4.552,2.1-5.8-3.069-6.071-5.581a18.469,18.469,0,0,1,.317-5,24.709,24.709,0,0,1,1.3-4.871q.239-.609.476-1.219,2.192-5.9,6.3.406c-.08.332.451.486.575.171" transform="translate(5.544 2.674)"/></g><g transform="translate(538.326 89.68)"><path class="f" d="M.162.513c2.707-1.58,2.474,2.494,2.381,3.406A20.571,20.571,0,0,1,2.2,5.977C1.872,7.554,1.213,9.01.809,10.557A.566.566,0,0,0,1.8,11c1.59-2.344,2.649-6.6,1.767-9.37C3.1.165,1.069-1.563-.128.208a.213.213,0,0,0,.29.305" transform="translate(0.171 0.543)"/></g><g transform="translate(526.676 105.783)"><path class="f" d="M4.25.168c.49,7.735-2.8,16.671-4.318,24.276-1.578,7.9-3.2,15.816-4.423,23.784a.865.865,0,0,0,1.708.264c2.2-9.539,3.867-19.214,5.593-28.846C3.832,13.945,7.4,5.5,4.862.015A.32.32,0,0,0,4.25.168" transform="translate(4.504 0.178)"/></g><g transform="translate(540.208 90.037)"><path class="f" d="M0,18.388c1.158,8.888,3.024,15.19,11.165,19.849,10.829,6.2,19.7-2.263,29.638-7.313C51.179,25.65,55.783,21.265,60.294,10.48,64.406.653,71.548-7.845,68.934-19.035c-.15-.647-1.129-.575-1.053.122.974,8.858-3.11,15.845-6.7,23.523-3.77,8.061-5.572,15.005-13.381,20.4-3.37,2.327-7.2,4.039-10.823,5.962-3.743,1.989-8.648,5.752-12.767,6.664C10.529,40.667,3.01,30.4.633,18.314c-.078-.395-.686-.338-.632.074" transform="translate(0.002 19.48)"/></g><g transform="translate(590.345 100.204)"><path class="f" d="M10.99.157C9.336,15.735.794,24.026-11.409,32.4a.591.591,0,0,0,.564,1.022C2.38,28.161,11.889,14.355,11.767.17c0-.441-.731-.451-.777-.014" transform="translate(11.648 0.166)"/></g><g transform="translate(529.795 48.827)"><path class="f" d="M.892,39.98A92.311,92.311,0,0,0,1.966,10.538C1.224,4.325-.613-3.03,2.133-9c1.514-3.289,4.332-6.64,6.044-9.922,2.429-4.661,4.136-8.493,9.113-10.711C19.969-30.821,23.329-31.3,26-32.022a85.858,85.858,0,0,0,11.906-4.335c13.346-5.812,25.024-5.721,34.475,6.642a.7.7,0,0,0,1.129-.826c-5.4-8.32-14.6-13.2-24.573-11.467-5.444.947-10.322,3.756-15.379,5.808-6.147,2.5-13.414,2.865-19.188,6.2-3.615,2.086-5.251,4.45-7.037,8.03C4.357-16,4.907-16.323,2.133-12.184a16.156,16.156,0,0,0-2.41,5.3C-1.81-1.192-.321,5.035.38,10.721A116.752,116.752,0,0,1,.159,39.868a.371.371,0,0,0,.733.113" transform="translate(0.945 42.356)"/></g><g transform="translate(457.063 533.294)"><path class="f" d="M.829.637a41.258,41.258,0,0,1,8.017.432c1.013.181,4.015.61,4.645,1.753l-.14,1.785a19.774,19.774,0,0,0-1.739-.945c-3.8-1.81-7.9-1.454-11.978-1.048A.6.6,0,0,0-.228,3.8a38.66,38.66,0,0,1,7.774-.266,17.637,17.637,0,0,1,2.935.5c1.2.33,2.035,1.143,3.15,1.543,1.04.373,2.183.35,2.221-1.032C15.906,2.577,13.08.96,11.582.431A19.814,19.814,0,0,0,.629-.16c-.488.128-.231.8.2.8" transform="translate(0.878 0.675)"/></g><g transform="translate(365.096 319.403)"><path class="g" d="M99.523,6.1a70.286,70.286,0,0,0,5.4,6.514,30.4,30.4,0,0,1,7.758,18.737,18.99,18.99,0,0,0,1.236,5.46c1.916,4.932,5.535,9,9.329,12.684.81,4.15,2.789,7.766,3.6,11.914a25.356,25.356,0,0,0,1.722,6.075c1.681,3.542,4.9,6.112,6.969,9.438,2.525,4.051,3.207,8.948,4.882,13.417,1.7,4.527,5.105,9.068,9.954,9.449a5.293,5.293,0,0,0,3.434-1.036c8.015-5.709,5.313-15.456,9.41-22.567,3.03-5.26,9.181-8.034,12.549-13.084,3-4.5,3.409-10.165,4.161-15.52s2.2-11.1,6.472-14.42c.772-2.339,2.212-5.182,2.983-7.519,7.142,3.857,15.905,3.172,23.481,6.084,8.7,3.344,15.064,11.259,18.381,19.968a247.51,247.51,0,0,0-33.9,77.181c-2.1,8.565-3.8,17.369-7.925,25.164-6.384,12.06-18.366,21.334-21.164,34.691-8.44,7.027-21.918,7.406-31.3,1.7-5.374-3.27-9.395-8.31-13.3-13.246L97.14,143.66A163.706,163.706,0,0,0,45.39,100.523C37.707,96.454,29.8,92.382,21.734,90,13.851,95.579,4.46,98.521-4.243,102.7S-21.5,112.915-24.956,121.931c-1.835,4.784-5.78,7.443-8.992,11.434,6.462,4.8,15.6,4.045,22.651,7.931,2.651,1.46,4.934,3.544,7.661,4.862C.943,148.37,6.155,148.18,11.27,147.4a5.962,5.962,0,0,1,6.765,4.527C19.5,158.7,17.5,166.291,14.9,172.963,12.032,180.3,7.923,188.275.375,190.528c-5.01,1.495-10.434.043-15.2-2.1s-9.247-4.994-14.251-6.5a19.592,19.592,0,0,0-10.12-.49,15.459,15.459,0,0,1-10.429-.849c-15.029-7.2-34.763-7.572-46.667-18.94a31.006,31.006,0,0,1-6.616-34.363c4.056-8.888,12.135-15.291,17.114-23.7,6.446-10.878,11.614-23.09,20.517-32.073S-46.56,54.2-39.839,43.486a61.956,61.956,0,0,0,8.075-45C2.008-4.386,35.89-7.555,69.753-6.1c9.14.391,18.527,1.153,26.013,7.855A27.38,27.38,0,0,1,99.523,6.1" transform="translate(105.486 6.466)"/></g><g transform="translate(576.293 138.397)"><path class="f" d="M2.908.031C-2.007,3.577-4.086,10.419-2.623,16.273c.171.675,1.257.859,1.347.025C-.656,10.532-1.845,4.685,3.283.544A.318.318,0,0,0,2.908.031" transform="translate(3.083 0.033)"/></g><g transform="translate(565.864 77.831)"><path class="f" d="M.181.534C4.015.219,8.51.542,11.206,3.561c1.681,1.882,2.736,3.48,4.995,4.753.958.542,1.811-.945.993-1.613C14.667,4.642,13,1.483,9.865.33A18.753,18.753,0,0,0,.1-.152a.346.346,0,0,0,.08.686" transform="translate(0.192 0.566)"/></g><g transform="translate(594.435 94.995)"><path class="f" d="M4.963,3.118C4.122,1.375,3.2-.527,1.519-1.609a7.086,7.086,0,0,0-2.591-.9c-1.145-.222-2.274-.638-3.411-.787a.7.7,0,0,0-.663,1.089C-4.21-.723-2.272-.982-.723-.777c2.561.336,3.875,2.142,5.142,4.195.185.3.7.021.544-.3" transform="translate(5.261 3.303)"/></g><g transform="translate(582.34 107.029)"><path class="f" d="M1.818.018A12.682,12.682,0,0,0-1.293,4.74,8.985,8.985,0,0,0-1.927,7.3c-.027.781.622,1.765.194,2.478a.512.512,0,0,0,.523.715C0,10.2.194,9.522-.041,8.367A8.842,8.842,0,0,1-.2,4.676,6.837,6.837,0,0,1,1.993.259c.142-.128-.039-.371-.175-.241" transform="translate(1.927 0.019)"/></g><g transform="translate(577.937 116.281)"><path class="f" d="M1.363.013a3.51,3.51,0,0,0-2.54.766c-.626.467-.052,1.639.686,1.244A13.818,13.818,0,0,0,1.569.861.477.477,0,0,0,1.363.013" transform="translate(1.445 0.014)"/></g><g transform="translate(566.613 88.538)"><path class="f" d="M5.642,3.72C5.142-2.286-.024-5.6-5.551-3.1a.7.7,0,0,0,.338,1.347,6.473,6.473,0,0,0,1.677-.41,5.816,5.816,0,0,1,4.828.216c2.26,1.186,2.872,3.618,3.9,5.785a.234.234,0,0,0,.449-.113" transform="translate(5.98 3.941)"/></g><g transform="translate(569.649 90.311)"><path class="f" d="M2.019.343c-.336.725.052,2-1.059,2.1C.186,2.512-1.108,1.593-.645.714L-1.821.837a.971.971,0,0,0,.641.4.758.758,0,0,0,.356-.006c.056-.014.113-.029.167-.047.225-.037.163-.179-.187-.422L.1,1.75a5.138,5.138,0,0,1,.466-.54L-.657.668C-.711.786-.766.9-.818,1.02c.393.241.783.482,1.176.725a1.353,1.353,0,0,1,.7-.855L0,.03A2.826,2.826,0,0,1-1.1,1.5c.235-.025.47-.051.705-.074-.025-.016-.052-.031-.076-.047l.4.733c0-.027,0-.052,0-.08.035-.713-.96-1.129-1.279-.379-.012.023-.021.049-.033.072a.689.689,0,0,0,.074.688l.056.068a.733.733,0,0,0,.826.239A3.494,3.494,0,0,0,1.29.609.714.714,0,0,0,.227-.252,2.444,2.444,0,0,0-.914,1.173.7.7,0,0,0,.262,1.9,1.626,1.626,0,0,0,.707.88.7.7,0,0,0-.511.339,5.108,5.108,0,0,0-.97.883c-.449.612.292,1.472.937.988A1.124,1.124,0,0,0,.322.308a1.146,1.146,0,0,0-.67-.474C-.587-.227-.9-.1-1.057-.122l.445.27C-.647.11-.682.069-.717.028A.7.7,0,0,0-1.893.153C-2.836,1.89-.894,3.747.789,3.8A2.108,2.108,0,0,0,2.878,2.59,1.982,1.982,0,0,0,2.454.24a.287.287,0,0,0-.435.1" transform="translate(2.14 0.363)"/></g><g transform="translate(590.889 103.925)"><path class="f" d="M4.349,3.02C3.682-.687-.248-4.278-4.207-2.9c-.663.231-.43,1.089.138,1.242A3.88,3.88,0,0,0-2.6-1.686a6.521,6.521,0,0,1,2.94.43A5.641,5.641,0,0,1,3.643,3.1c.084.445.787.371.705-.082" transform="translate(4.609 3.199)"/></g><g transform="translate(592.788 105.023)"><path class="f" d="M1.159.258c.134.754.344,1.44-.177,2.107C.08,3.516.034,1.574.609,1.125L-.559.616c.047.358.1.521-.225.735-.783.513.066,1.61.847,1.157A1.907,1.907,0,0,0,.906.447.744.744,0,0,0-.262-.065C-1.613.95-1.739,4.523.6,4.226c1.86-.237,2.678-3.174,1.333-4.393a.482.482,0,0,0-.775.426" transform="translate(1.228 0.273)"/></g><g transform="translate(573.085 113.635)"><path class="f" d="M2.71.5A9.022,9.022,0,0,1,.008.71C-.786.609-1.36.057-2.116-.133l.525.42a1.952,1.952,0,0,0-.194-.566.4.4,0,0,0-.67-.1c-.278.4-.544.758-.35,1.238A2.411,2.411,0,0,0-1.358,1.937c1.378.505,2.816-.529,4.142-.8C3.178,1.048,3.116.421,2.71.5" transform="translate(2.872 0.528)"/></g><g transform="translate(558.357 112.069)"><path class="f" d="M2.062,0a6.931,6.931,0,0,0-4.118,2.2.569.569,0,0,0,.208.869A71.692,71.692,0,0,1,8.658,9.8c2.692,1.94,8.149,4.776,9.358,7.954.255.673,1.2.262,1.016-.4-.954-3.47-5.564-5.544-8.343-7.4-2.1-1.4-4.229-2.77-6.359-4.125C2.015,4.363-2.346,2.565,2.213.606c.311-.134.212-.673-.152-.6" transform="translate(2.185 0.003)"/></g><g transform="translate(557.178 114.233)"><path class="f" d="M9.736,6.349C9.291,9.23,4.473,11.17,2.17,11.955c-3.37,1.147-6,.783-8.6-1.674C-11.568,5.414-7.849-.332-7.472-6c.056-.828-1.238-1.026-1.279-.2-.212,4.275-2.322,7.861-1.283,12.233A10.279,10.279,0,0,0-4.879,12.8c3.04,1.773,5.354.735,8.551-.48,2.692-1.024,7.016-2.434,7.092-5.816.014-.647-.923-.844-1.028-.159" transform="translate(10.319 6.726)"/></g><g transform="translate(558.98 115.335)"><path class="f" d="M8.867,5.765c-.383.49-1.283,2.146-1.831,2.321S4.963,7.2,4.492,6.953a46.254,46.254,0,0,1-6.343-4.1C-4.864.579-7.837-.98-7.633-5.255A.692.692,0,0,0-9-5.467c-.051.171-.1.342-.15.513q.705.108,1.413.22c.031-.179.064-.356.1-.535.144-.787-1.143-1.209-1.384-.41-.111.364-.22.729-.33,1.092a.734.734,0,1,0,1.4.416c.1-.365.21-.733.313-1.1q-.717-.111-1.438-.224c-.023.181-.047.36-.07.538a.715.715,0,0,0,1.413.22c.035-.175.068-.348.1-.521L-9-5.28c.01,1.841-.323,3.254.945,4.792C-6.3,1.65-2.969,3.219-.707,4.752,1.1,5.979,4.7,8.969,6.718,9.163c1.59.152,2.214-1.742,2.795-3a.384.384,0,0,0-.645-.4" transform="translate(9.398 6.108)"/></g><g transform="translate(557.589 116.937)"><path class="f" d="M4.984,8.245A9.151,9.151,0,0,0-4.485-2.02L-3.5-1A49.355,49.355,0,0,0-2.45-7.718l-1.79-.033A27.762,27.762,0,0,0-2.646-1.878q.848-.332,1.7-.669a8.33,8.33,0,0,1-.789-2.362c-.552.216-1.1.433-1.652.647C-2.2-2.866-.955-1.56.355-.283c.762.746,2.1-.505,1.364-1.3C.687-2.695-.347-3.811-1.389-4.917q-.7.668-1.405,1.337Q-.511-1.506,1.771.571,2.4-.2,3.017-.961c-.853-.585-1.7-1.166-2.556-1.751q-.627.77-1.25,1.54A25.836,25.836,0,0,1,4.57,3.5Q5.284,2.814,6,2.134,4.556.693,3.112-.749,2.486.027,1.855.8A38.406,38.406,0,0,1,6.649,5.028q.63-.773,1.257-1.547A21.986,21.986,0,0,1,5.588.814q-.717.679-1.432,1.363c1.23.916,2.4,1.874,3.547,2.9Q8.332,4.3,8.96,3.526A19.726,19.726,0,0,1,5.652.571L4.218,1.934C5.777,3.1,7.267,4.319,8.715,5.617c.836.75,2.1-.467,1.419-1.349-.292-.377-.583-.756-.875-1.131L8.06,4.616l1.226.766A1,1,0,0,0,10.8,5.024c.035-.087.07-.173.107-.26-.348.191-.7.379-1.046.568a9.009,9.009,0,0,1,1.094.309q-.216-.878-.428-1.757c-1.053.655-2.107,1.271-3.2,1.858.309.56.616,1.122.927,1.681l1.9-1.316Q9.592,5.334,9.026,4.56a7.405,7.405,0,0,1-3.4,1.878L6.714,7.917a3.331,3.331,0,0,0,.75-2.828.953.953,0,0,0-1.8-.28,7.8,7.8,0,0,0-.812,2.1c.622.1,1.246.194,1.868.29a10.087,10.087,0,0,1,.9-3.608L5.876,3.553c.027.63.052,1.258.078,1.888-.1.653.624,1.369,1.283,1.024.4-.208.807-.418,1.211-.63L7.163,4.809c-.023.1-.045.2-.068.3.278-.264.552-.531.828-.8a7.353,7.353,0,0,0-.7-2.024.958.958,0,0,0-1.821.2A7.176,7.176,0,0,0,5.258,5.9c.571-.222,1.141-.447,1.71-.671a13.692,13.692,0,0,1-1.817-3.31q-.886.347-1.77.7a16.239,16.239,0,0,1,1.3,3.563c.61-.152,1.222-.305,1.833-.459C4.646,1.56,2.389-3.189-2.848-2.8q.493.388.985.78c-.016-.309-.031-.62-.045-.929-.054-1.143-1.833-.941-1.77.206.017.309.033.618.051.927a.9.9,0,0,0,.983.78C1.55-1.342,3.34,3.306,4.743,6.426c.416.925,2.1.643,1.833-.461A19.068,19.068,0,0,0,5.151,1.924a.952.952,0,0,0-1.77.7A15.181,15.181,0,0,0,5.435,6.358a.958.958,0,0,0,1.712-.671,4.427,4.427,0,0,1,.13-2.91l-1.821.2A11.65,11.65,0,0,0,6.927,5.893a.94.94,0,0,0,.875.381l.34-.084a1,1,0,0,0,.826-.8c.023-.1.047-.2.068-.3A.953.953,0,0,0,7.751,4.072c-.4.21-.807.42-1.209.632L7.825,5.73a6.459,6.459,0,0,0-.187-2.871c-.22-.82-1.434-.725-1.745-.041A11.19,11.19,0,0,0,4.852,6.912a.946.946,0,0,0,1.868.29l.667-1.617-1.8-.278q-.172.706-.344,1.415A.956.956,0,0,0,6.325,8.2a8.457,8.457,0,0,0,3.833-2.094A.959.959,0,0,0,9.026,4.56l-1.912,1.3c-.888.6-.06,2.2.925,1.68,1.24-.655,2.453-1.343,3.648-2.078a.989.989,0,0,0-.43-1.757c-.422-.072-.62-.3-1.092-.315a1.032,1.032,0,0,0-1.048.568c-.035.087-.07.173-.107.259l1.516-.358A12.216,12.216,0,0,0,8.869,2.82c-.878-.476-1.776.727-1.2,1.479l.873,1.135q.708-.676,1.419-1.351c-1.442-1.3-2.929-2.531-4.486-3.7C4.617-.261,3.256.864,4.043,1.749A22.174,22.174,0,0,0,7.7,5.073,1,1,0,0,0,8.96,3.526C7.817,2.5,6.644,1.543,5.413.629A1,1,0,0,0,3.979,1.992a25.6,25.6,0,0,0,2.67,3.036c.931.91,2.128-.643,1.257-1.547A38.421,38.421,0,0,0,3.112-.749,1,1,0,0,0,1.855.8l2.89,2.881c.8.8,2.175-.507,1.432-1.363A27.394,27.394,0,0,0,.461-2.712c-1.053-.692-2.311.818-1.25,1.54Q.492-.3,1.771.571A.988.988,0,0,0,3.017-.961L-1.56-5.1c-.81-.733-2.177.523-1.407,1.337Q-1.314-2.016.355-.283q.6-.738,1.2-1.475A37.938,37.938,0,0,1-1.91-5.344c-.531-.624-1.866-.329-1.65.647a14.041,14.041,0,0,0,.913,2.819.913.913,0,0,0,1.7-.669,25.812,25.812,0,0,1-1.5-5.412c-.154-.956-1.7-1.1-1.788-.035A49.64,49.64,0,0,1-5.262-1.272.9.9,0,0,0-4.279-.248,7.8,7.8,0,0,1,4.018,8.1c-.023.612.906.785.966.15" transform="translate(5.283 8.735)"/></g><g transform="translate(569.846 89.491)"><path class="f" d="M1.456.984A1.116,1.116,0,0,0,1.568-.728a.583.583,0,0,0-.6-.093A3.091,3.091,0,0,0,.138-.2C.484.012.832.224,1.18.434c.033-.14.066-.282.1-.424A.7.7,0,0,0,.006-.561,1.22,1.22,0,0,1-.468.02L.694.726A1.22,1.22,0,0,1,.806.117.753.753,0,0,0-.566-.5c-.13.27-.262.54-.393.811L.5.537C.513.405.529.273.546.139c.241-.774-.725-1.557-1.3-.8C-.842-.559-.923-.452-1-.345L.369.263A1.223,1.223,0,0,1,.457-.161c.2-.686-.739-1.11-1.238-.752-.84.6-1.119,2.156-.142,2.76A.584.584,0,0,0,.006,1.49C.062,1.231-.08.516.144.353L-1.094-.4A1.327,1.327,0,0,0-1.17.026C-1.232.743-.282,1.3.2.636L.443.31l-1.366-.6A3.036,3.036,0,0,0-1.02.712.769.769,0,0,0,.433.938L.806.117-.566-.5A3.08,3.08,0,0,0-.764.7.74.74,0,0,0,.4,1.208,3.223,3.223,0,0,0,1.277.01L.006-.561A2.238,2.238,0,0,0-.128.411.668.668,0,0,0,1.04.751a2.808,2.808,0,0,1,.5-.537L.814.2A.911.911,0,0,1,.97.77a.309.309,0,0,0,.486.214" transform="translate(1.543 1.043)"/></g><g transform="translate(572.942 89.756)"><path class="f" d="M.792,1.2A1.822,1.822,0,0,0,.026-1.164a.537.537,0,0,0-.768.731A3.284,3.284,0,0,1-.16.747a1.816,1.816,0,0,0,.29.954.39.39,0,0,0,.665-.07C1.342.658.707-.279.122-1.065-.1-.8-.312-.53-.529-.26c.54.327.569.865.8,1.378A.309.309,0,0,0,.792,1.2" transform="translate(0.84 1.271)"/></g><g transform="translate(556.742 133.76)"><path class="f" d="M3.649,1.292A23.616,23.616,0,0,1-.313.4C-1.378-.09-2.144-1.014-3.273-1.35c-.307-.091-.729.165-.554.531,1.238,2.613,4.993,3.357,7.535,2.64.293-.082.173-.467-.058-.529" transform="translate(3.868 1.369)"/></g><g transform="translate(424.416 138.841)"><path class="h" d="M12.721,57.048C15.94,31.4,16.023,15.04,24.474-9.385a43.8,43.8,0,0,0-6.289-1.59,5.707,5.707,0,0,1-4.46-5.927c.9-15.775,8.557-35.943,21.141-43.536,11.054,3.262,35.983,3.132,47.444.966a7.891,7.891,0,0,1,8.522,4.246,17.244,17.244,0,0,0,3.3,4.778c4.9,4.644,11.808,5.723,18.288,5.091,5.278-.515,10.388-2.084,15.517-3.435,6.384-1.681,13.07-2.251,19.728-2.784a28.777,28.777,0,0,1,11.956,1.415c16.067,5.723,37.973-6.024,57.661.329-6.388,4.345-19.056,6.942-21.3,29.559-1.23,12.408,7.173,33.581,14.7,35.319-9.708,4.286-19.285.918-39.167,1.993-23.063,1.246-34.961,37.776-44.783,59.546a18.813,18.813,0,0,0-1.4,4.146c-1.759,9.078,3.535,15.954,5.4,23.877,1.156,4.9.958,10.019,1.619,15.015a25.632,25.632,0,0,0,2.49,8.468,5.431,5.431,0,0,1-3.84,7.756c-6.042,1.172-12.749.461-18.826-.272-8.864-1.067-17.623-3.373-26.55-3.283-11.293.113-22.144,4.041-33.082,6.858s-22.832,4.483-33.3.233C9.616,135.477,1.712,126.8-7.833,123.819a8.043,8.043,0,0,1-5.378-9.7c2.344-8.58,8.444-16.8,13.612-23.871,6.888-9.434,10.864-21.61,12.32-33.2" transform="translate(13.484 60.438)"/></g><g transform="translate(442.603 138.831)"><path class="d" d="M35.7.034C21.294,4.759,8.253,23.839-.747,34.585c-16.028,19.138-28.66,39.671-36.117,63.5A74.942,74.942,0,0,0-34.627,132c7.5-28.739,21.1-55.083,37.114-80,8.608-13.4,17.272-27.4,27.238-39.831C32.683,8.476,37.907,2.1,43.14,1.157A15.545,15.545,0,0,0,35.7.034" transform="translate(37.838 0.036)"/></g><g transform="translate(560.136 149.98)"><path class="d" d="M18.693,0C3.506,19.429-5.031,45.742-11.623,69.1-19.351,96.5-28.33,134.839-3.807,156.139c-.292-2.731-2.287-4.384-4.019-6.67-3.71-4.9-6.435-9.181-8.023-15.262-3.541-13.547-1.835-28.609.634-42.16C-12.09,74.9-6.384,58.288-.258,42.01,5.178,27.561,9.428,12.025,20.383.727,19.833.5,19.272.26,18.693,0" transform="translate(19.813)"/></g><g transform="translate(447.406 140.185)"><path class="d" d="M16.663,13.973A274.217,274.217,0,0,1,35.78-6.559c2.836-2.657,6.264-6.007,10.054-8.244C35.745-10.832,26.681.9,20.225,8.019A251.79,251.79,0,0,0-3.752,38.229,121.584,121.584,0,0,0-17.661,66.365C-9.712,47.029,3.113,29.59,16.663,13.973" transform="translate(17.661 14.803)"/></g><g transform="translate(536.712 145.941)"><path class="d" d="M14.046,37.817A341.175,341.175,0,0,1,29.475-5.921c4.532-10.538,9.511-21.529,17.017-30.35-3.343-1.52-7.059-3.345-10.238-3.68-10.58-1.11-12.813,6.092-16.714,13.133A256.7,256.7,0,0,0,8.144-3.285C1.346,12.607-4.605,28.988-9.985,45.41c-5.5,16.786-6.936,34.176-1.386,51.2A63.253,63.253,0,0,0,0,117.527c3.275,3.923,14.242,14.921,20.768,11.455,1.083-.573,3.387-5.369,3.72-6.938C-.155,101.669,6.552,64.919,14.046,37.817" transform="translate(14.888 40.065)"/></g><g transform="translate(535.141 143.498)"><path class="f" d="M18.07,83.272C11.544,86.738.577,75.739-2.7,71.816A63.281,63.281,0,0,1-14.065,50.9c-5.551-17.021-4.112-34.413,1.386-51.2C-7.3-16.725-1.349-33.106,5.449-49a256.7,256.7,0,0,1,11.4-23.533c3.9-7.043,6.134-14.243,16.714-13.133,3.178.332,6.9,2.16,10.238,3.68-7.506,8.821-12.487,19.812-17.017,30.35A341.175,341.175,0,0,0,11.352-7.894c-7.494,27.1-14.2,63.85,10.438,84.228-.332,1.569-2.637,6.364-3.72,6.938M10.44,10.311C7.972,23.862,6.264,38.923,9.8,52.469c1.59,6.082,4.313,10.357,8.025,15.262,1.732,2.288,3.728,3.94,4.017,6.672C-2.674,53.1,6.3,14.757,14.032-12.633c6.59-23.362,15.128-49.675,30.316-69.1q.866.391,1.689.725c-10.953,11.3-15.2,26.836-20.64,41.285C19.271-23.449,13.565-6.84,10.44,10.311M24.6,72.228c-.361-1.635-1.566-2.263-2.49-3.39-3.372-4.115-6.064-6.3-8.231-11.333-2.785-6.471-3.607-13.64-3.745-20.627C9.7,14.912,15.017-7.2,22.111-27.838c6.2-18.032,12.5-38.132,25.141-52.762.943.016,1.471-1.411.439-1.8-10.835-4.073-20.088-10.968-27.724.428C11.216-68.915,4.923-53.805-.733-39.206-10.8-13.222-23.559,15.011-17.653,43.424c2.466,11.864,7.789,23.6,16.245,32.417,3.432,3.579,13.919,11.763,19.656,9.4,2.96-1.217,7.033-9.93,6.349-13.016" transform="translate(19.153 88.22)"/></g><g transform="translate(440.346 137.316)"><path class="f" d="M33.894,6.66C23.93,19.092,15.264,33.1,6.657,46.491c-16.008,24.921-29.611,51.263-37.114,80a74.943,74.943,0,0,1-2.237-33.919c7.457-23.825,20.09-44.36,36.117-63.5,9-10.746,22.043-29.827,36.446-34.551A15.541,15.541,0,0,1,47.31-4.348C42.076-3.411,36.852,2.971,33.894,6.66M9.022,18.633C15.476,11.514,24.542-.215,34.631-4.187,30.839-1.949,27.413,1.4,24.577,4.057A274.216,274.216,0,0,0,5.459,24.589C-8.092,40.206-20.915,57.645-28.864,76.981A121.668,121.668,0,0,1-14.957,48.843,251.807,251.807,0,0,1,9.022,18.633M51.179-3.9c-9.21-6.565-19.551-1.95-27.214,5.344-13.113,12.478-26.077,26.3-36.788,40.9C-31.336,67.59-42.8,100.1-31.34,130.754a1.105,1.105,0,0,0,2.1-.235c5.321-25.275,16.36-48.382,29.574-70.436C4.682,52.834,41.95-10.615,52.1-.7c.981.96,2.321-.7,1.345-1.654A7.744,7.744,0,0,0,51.179-3.9" transform="translate(35.925 7.056)"/></g><g transform="translate(0 0.001)"><path class="d" d="M107.458,167.482,78.489,189.359l-17.378.772-29.377-8.678-.381-20.938,8.359-16.134,15.68-22.371,19.965-17,32.1,17.758ZM238.38-91.48C230-120.466,220.288-149.3,209.4-177.434a305.8,305.8,0,0,1-24.5,23.6c-.536.453-1.071.9-1.609,1.343v0c-1.024.848-2.05,1.691-3.084,2.51a224.8,224.8,0,0,1,13.122,28.566,3.844,3.844,0,0,0-.733-.505.807.807,0,0,0-1.086.284c-1.273,2.4-1.372,6-.7,8.827-.694-.26-1.281.078-1.4,1.715-.171,2.344,1.965,5.69,2.95,7.787,1.718,3.66,4.039,7,5.174,10.907.076.465.154.931.229,1.4a48.5,48.5,0,0,1-2.433,8.192,2.024,2.024,0,0,0-.88,2.2c-2.354,5.488-5.36,10.721-8.032,16.092-5.62,11.292-12.254,22.734-15.406,35.039-1.6,6.25-2.311,12.54-4.991,18.5C163.483-5.353,159.932-.221,156.36,4.8c-2.019,2.838-4.095,5.655-6.091,8.518-.84-.126-1.685-.227-2.534-.29a37.027,37.027,0,0,1-4.8,11.42,37.362,37.362,0,0,1-3.669,4.875c-.521.585-1.234,1.174-1.9,1.794-.272-.354-.523-.725-.8-1.079a1.182,1.182,0,0,0-1.423-.183,12.735,12.735,0,0,1-4.1,1.74c-.354-12.593,9.272-21.729,4.07-34.5-2.091-5.128-5.529-9.622-7.156-14.966-1.706-5.61-1.139-11.691-3.314-17.2-3.862-9.764-12.679-13.318-20.132-19.42-5.119-4.189-10-7.157-15.925-2.859-1.217-4.415-7.809-6.658-11.793-7.4-7.08-1.322-13.746,1.388-19.4,5.48-5.471,3.958-12.545,9.6-15.138,16.117-1.189,2.992-1.182,6.254-1.273,9.416-.091,3.223-.332,6.43-.577,9.634-.622,3.068-.457,5.861-.978,9.23C38.094-6.251,33.409-2.363,27.963,3.505c-3.71,4-6.342,7.964-5.681,13.119-.731-.618-1.469-1.221-2.175-1.886C13.033,8.093,7.2.477-.565-5.464-9.171-12.044-18.777-17.122-27.8-23.082c-9.383-6.2-17.816-13.508-26.785-20.223-4.9-5.249-9.918-10.6-12.2-17.55-1.178-3.577-1.238-7.385-2.289-11.008-1.077-3.711-3.246-7.043-4.241-10.783-.665-2.506.667-19.118-6.483-11.73-.006.006-.006.012-.012.017a1.049,1.049,0,0,0-.159.15c-1.673,2.391-1.831,4.634-1.586,7.542.122,1.452.795,3.046.847,4.44a9.99,9.99,0,0,1-1.43,5.361,37.945,37.945,0,0,1-2.872-5.05c-1.259-2.768-1.605-5.935-2.905-8.645-.637-1.326-1.771-3.052-3.514-2.208-1.881.91-1.325,4.623-1.3,6.185.087,4.819,1.512,9.309,2.284,13.985-2-1.091-8.981-10.8-10.176-11.941-1.4-1.332-3.082-2.832-4.629-.855-1.372,1.75,0,4.4.855,6.022,2.115,4,9.208,10.093,8.337,15.258-3.749-4.212-7.613-8.4-11.531-12.449-1.839-1.9-4.334-1.866-4.983,1.147a1.058,1.058,0,0,0,.019.515c0,.012,0,.023,0,.037.626,3.171,3.687,5.63,5.78,7.929,2.855,3.139,7.09,6.712,8.149,11.049a118.6,118.6,0,0,0-13.3-1.2l-.012,0a.893.893,0,0,0-.169.025.765.765,0,0,0-.486.229c-.284.173-.568.348-.849.519a.964.964,0,0,0-.428,1.052c1.092,5.754,13.041,6.2,17.363,7.286a44.753,44.753,0,0,1,15.254,7.206c9.517,9.418,19.3,18.354,28.034,28.577,8.681,10.163,15.4,22.816,25.279,31.847C-19.285,27.579-8.362,31.194,1.4,37.329,9.8,42.615,17.381,49.2,25.1,55.559c-1.737,8.248-.325,10.956-.325,10.956-.735,2.105,6.021,6.74,13.414,10.06C50.5,82.1,56.79,86.541,62.6,92.84c-6.934,4.772-11.9,11.265-16.63,18.251-7.453,11.008-16.164,20.178-24.762,30.22a.73.73,0,0,0-.173.428c-17.464,4.65-35.865,12.1-39.124,32.191a29.9,29.9,0,0,0,.284,11.026c-6.221,8.174-13.476,14.393-23.032,18.6a1.1,1.1,0,0,0-.5,1.229c7.943,33.017,37.493,54.128,69.267,61.381,5.891,1.345,13.534,3.414,19.421.978a8.951,8.951,0,0,0,3.045-1.825.577.577,0,0,0,.08-.3,15.81,15.81,0,0,1,2.146-6.119c.807-1.409,2.179-2.655,3.1-4,4.542-6.629,5.64-15.063,8.337-22.536a168.748,168.748,0,0,1,6.831-17.056c-.161,7.505.919,15.155,2.027,22.612,1.654,11.154-.595,21.222,4.6,31.229,0,0,6.27,13.209,25.7,13.979a76.53,76.53,0,0,1,5.945,16.249c-6.616.161-23.967.14-29.247,4.123-2.488,1.876-4.839,4.187-7.877,4.877a12.544,12.544,0,0,1-7.22-.886,4.783,4.783,0,0,0-3.984.832c-13.08-5.019-25.667,8.092-33.641,16.966C17.126,336.489,2.663,339.967.144,356.895c-.478,3.215-1.211,10.046,1.436,12.68,4.005,3.983,15.87,1.594,20.482.027,7.828-2.667,14.329-8.118,20.993-12.824,2.5-1.765,5.055-3.388,7.642-4.936a36.6,36.6,0,0,0-6.555,15.427c-.958,5.486-1.1,10.931-2.692,16.325-1.588,5.371-3.945,10.456-5.883,15.7-2.451,6.642-9.572,29.981,4.353,29.474,8.777-.321,15.192-12.962,19.038-19.361a171.876,171.876,0,0,0,8.54-16.37c1.061-2.292,2.027-4.636,3.178-6.883,3.741-7.309,8.588-10.048,15.868-11.454a9.77,9.77,0,0,0,3.479.36c13.321-1.12,65.81,3.427,65.81,3.427a46.563,46.563,0,0,0,14.475.523c2.977-.379,6.157-1.155,8.392-3.233,1.516-1.407,2.49-3.318,3.976-4.757,1.84-1.784,4.336-2.729,6.324-4.349,2.536-2.068,4.079-5.091,5.4-8.087,10.24-23.253,10.967-49.422,11.531-74.827q.35-15.687.7-31.381c2.647-1.433,4.058-4.617,4.289-7.669.249-3.272-.544-6.522-.84-9.79-.459-5.081.29-10.2.187-15.3-.48-23.914-16.922-44.871-21.18-68.406a87.1,87.1,0,0,1-1.178-16.9c.051-3.314.216-6.635.447-9.953.231-3.342.509-6.683.772-10.013.01-.13.021-.262.033-.395q.157-2.012.293-4.032.2-3,.321-6.011l0-.058c.365-9.138,0-18.284-2.591-27A43.294,43.294,0,0,0,170.817,54.06c.566-7.533,1.938-15.077,6.7-20.769q-.513-1.07-1.1-2.1c2.025-4.605,4.241-9.164,6.79-13.693,5.776-10.264,10.747-19.146,12.675-30.863.927-5.626,4.011-9.566,6.12-14.739a63.774,63.774,0,0,0,3.712-15.989c.484-3.726.9-7.377,1.351-10.987,1.592-1.1,1.479-3.472.816-5.906.025-.159.047-.321.074-.482a.644.644,0,0,0,.1-.056c1.652-1.37,1.72-3.707,1.028-6.267q.8-3.826,1.955-7.632c1.207,2.83,2.686,5.777,3.79,8.563.618-.694,1.228-1.361,1.84-2.047.33-.369.661-.735.991-1.1,6.7-7.465,13.34-14.5,20.729-21.472" transform="translate(113.898 177.434)"/></g><g transform="translate(294.101 0.002)"><path class="i" d="M8.339,32.866A224.8,224.8,0,0,0-8.839-7.369c10.308-8.155,20.175-17.886,29.195-27.45,10.891,28.136,20.6,56.968,28.981,85.954-8.429,7.949-15.87,15.954-23.559,24.622-1.273-3.205-3.063-6.635-4.334-9.842a19.363,19.363,0,0,1,1.372-4.251A14.82,14.82,0,0,0,24.375,57.7a5.288,5.288,0,0,0-.742-4.094,11.233,11.233,0,0,0-1.257-7.57c-.8-1.4-1.938-2.583-2.678-4.012-1.2-2.307-1.242-5.027-1.1-7.622s.453-5.231-.117-7.768-2.245-5.017-4.754-5.688c-1.6,4.782.867,10.452-1.176,15.061a10.418,10.418,0,0,0-4.215-3.137" transform="translate(8.839 34.819)"/></g><g transform="translate(297.184 23.594)"><path class="d" d="M9.155,22.107a17.89,17.89,0,0,0,.251-4.833Q1.15-3.317-8.093-23.421q-.8.679-1.611,1.345Q.286-.294,9.155,22.107" transform="translate(9.704 23.421)"/></g><g transform="translate(326.097 92.902)"><path class="d" d="M2.92,6.748q-2.39-6.96-4.9-13.9A13.674,13.674,0,0,1-3.1-4.245Q-.815,2.1,1.365,8.478q.778-.869,1.555-1.73" transform="translate(3.095 7.149)"/></g><g transform="translate(138.131 231.885)"><path class="j" d="M.266,5.858S-1.283,2.925.829-6.206C3.092-4.4,9.73.51,9.73.51S2.194,9.019.266,5.858" transform="translate(0.282 6.206)"/></g><g transform="translate(189.871 409.359)"><path class="j" d="M.748,18.078S8.7,34.875,34.5,31.707s10.71-50.859,10.71-50.859l-43,14.638S-3.432,8.827.748,18.078" transform="translate(0.793 19.152)"/></g><g transform="translate(134.92 268.919)"><path class="f" d="M.571,24.676A148.292,148.292,0,0,0,21.582,1.2c6.583-9.329,12.267-19.093,22.247-25.224,1.23-.756.052-2.739-1.127-1.928L41.05-24.818a.972.972,0,0,0,.98,1.678l1.8-.883q-.566-.965-1.127-1.928C34.827-21.107,29.463-14.1,24.342-6.535,16.891,4.473,8.18,13.642-.418,23.685a.7.7,0,0,0,.989.991" transform="translate(0.606 26.142)"/></g><g transform="translate(143.906 282.449)"><path class="f" d="M1.405,31.114C-3.86,20.818,11.95,2.636,17.8-5.554c7.241-10.13,15.519-17.968,24.942-25.984.737-.626-.208-1.786-1.014-1.316C29.105-25.49,19.744-12.53,11.834-.523,6.394,7.733-6.1,21.422.288,31.768a.648.648,0,0,0,1.117-.653" transform="translate(1.489 32.963)"/></g><g transform="translate(232.301 205.096)"><path class="f" d="M8.72,2.037C6.683,1.364,4.328,1.9,2.233,1.876A25.757,25.757,0,0,1-2.793,1.39C-5.2.863-6.3-.562-8.147-2.012c-.441-.346-1.289-.051-1.055.612C-6.653,5.843,2.95,3.713,8.555,3.256A.624.624,0,0,0,8.72,2.037" transform="translate(9.243 2.158)"/></g><g transform="translate(228.888 187.634)"><path class="f" d="M6.055,17.251C-.413,6.777-2.926-5.275-4.378-17.32a.993.993,0,0,0-1.984,0C-7.009-5.44-1.958,8.395,5.221,17.737c.365.478,1.17.06.834-.486" transform="translate(6.418 18.276)"/></g><g transform="translate(183.413 192.232)"><path class="f" d="M.005.3c1.25,6.44,5.924,12.2,8.73,18.084,2.159,4.522,4.091,9.776,7.171,13.749.579.75,1.609-.089,1.454-.846-.97-4.741-4.1-9.317-6.178-13.642A160.656,160.656,0,0,0,.917-.08.5.5,0,0,0,.005.3" transform="translate(0.006 0.321)"/></g><g transform="translate(224.046 168.912)"><path class="f" d="M3.2.116a76.288,76.288,0,0,1-.5,12.795c-.686,5.12-3.9,8.458-6.052,13.009a.448.448,0,0,0,.7.54c3.226-3.194,6.579-6.881,7.294-11.5C5.4,10.119,4.489,4.836,3.682.052c-.047-.272-.49-.208-.48.064" transform="translate(3.394 0.123)"/></g><g transform="translate(177.507 181.558)"><path class="f" d="M23.466,5.307c-8.184,7.6-15.587,9.074-26.423,7.037-10.65-2-16.057-8.6-20.918-17.711a.532.532,0,0,0-.968.408C-20.894,6.471-13.367,12.995-1.588,14.7c8.635,1.248,21.679.074,25.426-9.175.089-.22-.225-.354-.373-.216" transform="translate(24.872 5.622)"/></g><g transform="translate(231.34 165.92)"><path class="f" d="M.25,7.143c2.892.521,6.963.75,7.77-2.712A16,16,0,0,0,6.4-7.3c-.3-.573-1.038-.136-.962.406C5.888-3.75,7.578-1.231,6.607,2.013,6.086,3.747,5.534,4.6,3.59,5.093c-1.108.278-2.233.292-3.341.659-.618.206-.75,1.256,0,1.392" transform="translate(0.265 7.568)"/></g><g transform="translate(171.303 188.364)"><path class="f" d="M6.056,1.7C3.533,2.043,1.823,5.05-.97,3.308-2.935,2.082-3.9-.144-5.57-1.655a.509.509,0,0,0-.842.492C-6.037,1.4-3.154,4.906-.665,5.709c2.6.84,5.972-.96,7.319-3.231.26-.439-.169-.838-.6-.78" transform="translate(6.418 1.799)"/></g><g transform="translate(204.23 140.484)"><path class="f" d="M6.613,1.773A14.856,14.856,0,0,0-2.069-1.862c-2.169-.152-5.4.745-4.886,3.478a.834.834,0,0,0,1.382.365A7.158,7.158,0,0,1-3.489.274,9.008,9.008,0,0,1,.279.206a17.067,17.067,0,0,1,5.885,2.15c.356.192.773-.292.449-.583" transform="translate(7.009 1.878)"/></g><g transform="translate(178.987 143.448)"><path class="f" d="M.454,4.082A38.6,38.6,0,0,1,4.877-1.287c2.011-1.812,3.78-.222,5.681.663A.926.926,0,0,0,11.814-1.88c-.974-2.226-4.3-3.011-6.406-2.027A5.7,5.7,0,0,0,3.221-1.814C1.98-.039.872,1.821-.39,3.588c-.369.519.472.982.843.494" transform="translate(0.481 4.325)"/></g><g transform="translate(171.889 131.119)"><path class="f" d="M29.049,20.431c-.039-6.59-2.826-11.319-4.692-17.382-1.617-5.258-2.223-9.755-5.8-14.276-7.537-9.515-21.881-12.836-32.961-8.617C-36.78-11.328-33.5,21.866-20.854,37.726c.657.824,1.971-.235,1.442-1.112-9.8-16.208-16.446-49.134,8.188-55.361C1.611-21.991,17.4-15.195,21.118-1.924c2.118,7.55,5.7,14.717,6.961,22.485.091.558.974.414.97-.13" transform="translate(30.79 21.645)"/></g><g transform="translate(164.641 161.6)"><path class="f" d="M3.873.159c.75,11.448.435,20.45-4.9,30.9C-3.656,36.21-5.275,41.1-3.071,46.647a.573.573,0,0,0,1.1-.305c-2.186-10.036,6.4-17.336,7.834-26.824C6.841,13.09,5.737,6.389,4.53.069a.336.336,0,0,0-.657.089" transform="translate(4.105 0.168)"/></g><g transform="translate(182.518 198.001)"><path class="f" d="M0,.188C.2,11.416,5.834,24.271,15.993,29.969a.634.634,0,0,0,.764-.991C8.287,20.521,2.392,12.419.807.188.741-.31-.01-.347,0,.188" transform="translate(0 0.199)"/></g><g transform="translate(136.063 150.52)"><path class="f" d="M9.2.1c-1.5,4.2-1.028,7.548-1.693,11.85C6.178,20.563,1.492,24.451-3.954,30.319c-4.188,4.512-7.02,8.977-5.273,15.163a.8.8,0,0,0,1.533-.422C-9.7,33.55,2.369,29.281,6.689,20.707,9.905,14.327,8.316,7.057,9.742.245A.281.281,0,0,0,9.2.1" transform="translate(9.751 0.101)"/></g><g transform="translate(113.572 484.608)"><path class="f" d="M30.058.691C16.707-5.159,3.783,8.344-4.347,17.389c-10.061,11.2-24.525,14.675-27.043,31.6-.478,3.213-1.211,10.046,1.436,12.678,4.005,3.983,15.87,1.6,20.482.027,7.828-2.665,14.329-8.118,20.993-12.824,8.734-6.166,18.063-10.709,27.485-15.666a.821.821,0,0,0-.63-1.495C27.392,35.4,17.348,41.857,8.154,48.8c-4.61,3.482-9.09,7.249-14.314,9.8a29.2,29.2,0,0,1-14.387,3.058c-9.35-.682-9.43-3.1-8.9-10.087,1.166-15.509,13.06-19.83,23.182-28.585C3.709,14.362,13.477-4.484,29.555,1.882c.682.27,1.18-.9.5-1.192" transform="translate(31.86 0.732)"/></g><g transform="translate(145.459 524.563)"><path class="f" d="M11.128.084A37.8,37.8,0,0,0,.787,20.052C-.171,25.537-.311,30.984-1.9,36.377-3.493,41.75-5.85,46.833-7.788,52.08c-2.453,6.642-9.572,29.981,4.353,29.474C5.342,81.232,11.758,68.591,15.6,62.192a171.87,171.87,0,0,0,8.54-16.37c1.061-2.29,2.027-4.634,3.178-6.883,4.367-8.532,10.232-10.845,19.732-12.068,1.055-.134,1.133-1.73,0-1.709-5.059.107-12.2.356-16.14,3.8-3.5,3.067-5.389,8.493-7.271,12.647-4.208,9.3-8.392,18.858-14.279,27.24C6.845,72.438,1.706,79.584-3.419,79.176-15,78.245-7.218,56.162-4.8,49.755c2.9-7.7,5.926-15.009,7.129-23.2C3.758,16.817,6.013,8.732,12.094.83c.43-.558-.492-1.246-.966-.746" transform="translate(11.795 0.089)"/></g><g transform="translate(119.049 486.551)"><path class="f" d="M2.544,29.276C-6.316,23.051,3.454,8.42,8.2,3.463c4.116-4.3,9.13-6.687,14.139-9.679C32.369-12.209,38.654-31.073,52.035-29.2c1.011.14,1.473-1.386.431-1.567-6.408-1.106-11.253,1.633-15.433,6.491C32.8-19.363,30.208-13.6,24.927-9.6c-4.281,3.246-9.36,5.2-13.606,8.51C4.385,4.31-10.007,23.658,1.8,30.549c.832.486,1.51-.737.744-1.273" transform="translate(2.697 31.016)"/></g><g transform="translate(151.945 521.184)"><path class="f" d="M3.069,39.815C-9.712,36.137,7.358,3.265,9.394-3.478c3.922-12.983,4.62-25.055,11.052-37.453a.833.833,0,0,0-1.436-.842C10.032-26.465,10.028-8.544,3.453,7.7.859,14.118-9.778,39.158,2.668,41.269a.755.755,0,0,0,.4-1.454" transform="translate(3.252 42.181)"/></g><g transform="translate(158.259 493.157)"><path class="f" d="M4.642,15.626c.735-5.493-2.194-9.144-5.774-12.832C-3.7.149-3.356.256-1.906-2.66A29.869,29.869,0,0,1,1.946-8.579c2.359-2.815,5.308-4.877,8.155-7.15.48-.383-.134-.991-.6-.783C3.821-14.022-3.158-7.1-4.559-.815c-.42,1.88-.634,1.547.274,3.2,1.03,1.868,4.159,3.174,5.442,5.33C2.7,10.3,3.1,12.889,3.672,15.756c.12.6.9.371.97-.13" transform="translate(4.92 16.555)"/></g><g transform="translate(176.087 524.353)"><path class="f" d="M4.778,16.854a6.916,6.916,0,0,0-1.22-3.831c-1.493-2.22-5.4-2.762-6.375-4.9C-4.1,5.325-1.851-.893-.934-3.85c1.64-5.284,4.017-8.773,7.5-13.03.361-.439-.128-1.277-.667-.865C.116-13.336-2.362-6.01-3.795.883c-.412,1.979-1.963,6.341-.91,8.271,2.192,4.02,6.485,1.47,8.481,7.834.163.521,1.069.463,1-.134" transform="translate(5.064 17.856)"/></g><g transform="translate(125.379 524.586)"><path class="f" d="M6.286,9.706c.22-4.238-1.5-8.631-3.724-12.179C.827-5.24-2.2-9.346-5.517-10.256a.857.857,0,0,0-.958.391c-.033.068-.068.134-.1.2-.245.5.039,1.281.7,1.217.781-.076.212-.2.873.087,1.629.7,3.877,3.489,5.065,4.938C3.3.535,4.383,4.961,5.412,9.827c.107.509.849.362.875-.121" transform="translate(6.663 10.283)"/></g><g transform="translate(154.377 583.053)"><path class="f" d="M7.061,3.773C4.568-.195-2.123-4.988-7.079-3.818A.563.563,0,0,0-7.211-2.8C-4.938-1.812-2.454-1.73-.17-.576A22.55,22.55,0,0,1,6.053,4.551a.645.645,0,0,0,1.009-.778" transform="translate(7.484 3.997)"/></g><g transform="translate(56.945 133.121)"><path class="f" d="M51.981,37.5c-10.559-5.443-21.221-9.906-30.017-18.17C14.89,12.681,9.063,5.065,1.293-.876c-8.606-6.58-18.212-11.658-27.236-17.618-9.78-6.458-18.512-14.142-27.91-21.08-.791-.585-1.662.657-1.02,1.326C-38.688-21.324-16.7-12.58,1.449,1.618,10.2,8.467,16.373,17.908,25.13,24.745c7.828,6.114,17.079,10.489,26.34,13.965.7.262,1.176-.871.511-1.213" transform="translate(55.096 39.725)"/></g><g transform="translate(31.311 134.24)"><path class="f" d="M58.289,51.771A346.678,346.678,0,0,0,25.755,25.606C15.191,18.238,2.727,14.735-6.708,5.552-15.93-3.423-22.553-15.469-30.953-25.3c-8.891-10.412-18.521-20.955-29.379-29.347-.826-.638-1.973.4-1.186,1.186,9.851,9.811,20.041,19.023,29.1,29.625C-23.737-13.675-17.018-1.02-7.14,8.009,1.52,15.927,12.443,19.542,22.2,25.677c12.514,7.867,23.182,18.64,35.239,27.191.647.461,1.438-.572.849-1.1" transform="translate(61.782 54.847)"/></g><g transform="translate(28.672 82.811)"><path class="f" d="M2.549.2C.876,2.591.718,4.835.963,7.745c.122,1.45.795,3.046.847,4.44.128,3.433-1.555,5.171-2.734,8.046A21.458,21.458,0,0,0-.448,38.379a.473.473,0,0,0,.861-.364c-1.162-4.28-2.1-8.405-1.23-12.886.727-3.73,3.337-6,4.563-9.239C5.66,10.826.306,6.421,4.179,1.157,4.9.183,3.247-.793,2.549.2" transform="translate(2.702 0.214)"/></g><g transform="translate(33.825 81.181)"><path class="f" d="M13.73,27.184C8.073,20.907,1.459,14.883-1.27,6.6-2.447,3.024-2.51-.785-3.561-4.406-4.638-8.119-6.807-11.451-7.8-15.191c-.665-2.506.665-19.118-6.485-11.73a.913.913,0,0,0,1.29,1.291c2.546-2.34,2.583,8.108,2.587,8.135a31.9,31.9,0,0,0,2.194,6.866C-5.907-4.68-5.234,1.21-3.318,7.166c2.6,8.089,9.486,16.133,16.477,20.761.464.307.917-.36.571-.743" transform="translate(14.553 28.8)"/></g><g transform="translate(1.295 99.578)"><path class="f" d="M.991,1.456c.41-2.741,3.424,1.372,3.815,1.8C5.918,4.465,7.014,5.69,8.114,6.909c2.2,2.442,4.338,4.936,6.6,7.323.865.914,2.2-.443,1.374-1.372C12.155,8.423,8.081,4.008,3.959-.249,2.123-2.146-.375-2.113-1.024.9-1.312,2.234.8,2.76.991,1.456" transform="translate(1.051 1.543)"/></g><g transform="translate(1.082 101.293)"><path class="f" d="M.429,10.147c4.861.268,9.653,1.073,14.5,1.468a.958.958,0,0,0,.917-1.205,24.385,24.385,0,0,0-4.76-8.24C9.713.475,8.313-1.2,6.93-2.888,5.212-4.98,2.479-7.344,1.78-10.019c-.336-1.285-2.225-.735-1.973.546C.431-6.3,3.492-3.843,5.585-1.543c3.108,3.417,7.9,7.336,8.394,12.206.4-.305.8-.61,1.2-.918A102.714,102.714,0,0,0,.429,8.312c-1.18-.068-1.176,1.769,0,1.835" transform="translate(0.455 10.75)"/></g><g transform="translate(0 120.344)"><path class="f" d="M18.55,9.255C15.075,5.014,9.909,1.808,5.006-.511A36.466,36.466,0,0,0-1.7-2.756C-4.328-3.427-6.97-4.039-9.6-4.706c-.845-.214-8.608-2.751-7.642-3.382s.089-2.193-.921-1.575c-.35.214-.7.43-1.053.645a.96.96,0,0,0-.428,1.05C-18.547-2.212-6.6-1.763-2.276-.682a44.25,44.25,0,0,1,19.753,11.01c.709.7,1.681-.332,1.073-1.073" transform="translate(19.662 9.805)"/></g><g transform="translate(21.066 84.444)"><path class="f" d="M5.612,8.464A43.178,43.178,0,0,1,1.868,2.109C.607-.657.261-3.826-1.039-6.533c-.637-1.328-1.77-3.054-3.514-2.21-1.881.91-1.325,4.625-1.3,6.186.1,5.608,2.021,10.769,2.606,16.3a.579.579,0,0,0,1.156,0c.235-2.574-4.307-20.289-.721-19.787.478.068,2.287,7.126,2.536,7.706A31.233,31.233,0,0,0,4.461,9.352c.529.636,1.617-.2,1.151-.888" transform="translate(5.948 8.967)"/></g><g transform="translate(8.062 91.088)"><path class="f" d="M7.664,6.727c-1.187.5-9.28-10.81-10.574-12.044-1.4-1.332-3.082-2.832-4.631-.855-1.37,1.75,0,4.4.857,6.02,2.33,4.417,10.761,11.38,7.824,16.83a.74.74,0,0,0,1.156.894C7.545,12.512-1.438,4.787-4,.816-4.872-.531-6.765-2.714-5.128-3.6-3.41-4.54-1.024-.467.15.884,2.166,3.2,4.331,7.052,7.211,8.259a.7.7,0,0,0,.676-.179c.128-.1.258-.2.385-.305C8.75,7.4,8.231,6.49,7.664,6.727" transform="translate(8.123 7.127)"/></g><g transform="translate(278.306 95.347)"><path class="f" d="M22.861.174a34.245,34.245,0,0,0-4.765,11.3,1.7,1.7,0,0,1,1.252,2.181c-.089.307-.107,1.005-.2,1.52,0,.021-.016.041-.021.062-.023.49-.089.976-.109,1.466a1.243,1.243,0,0,1-.041.157,3.075,3.075,0,0,1,.175.628A1.882,1.882,0,0,1,17.87,19.75a1.927,1.927,0,0,1-1.119-.093c-.371,3.309-.612,6.637-.855,9.889-.534,7.152-1,14.435-3.4,21.257-1.776,5.046-5.706,9.026-7.2,14.045-2.054,6.9-2.2,13.014-5.451,19.738-2.95,6.1-6.647,11.817-9.713,17.861-6.058,11.936-11.569,25.022-14.337,38.134a.85.85,0,0,0,1.638.451C-17.785,126.47-13,112.83-5.44,99.4.336,89.139,5.309,80.258,7.235,68.54c.927-5.628,4.011-9.566,6.12-14.739a63.794,63.794,0,0,0,3.712-15.989C18.735,24.961,19.5,12.96,24.353.8c.361-.9-1.007-1.353-1.493-.63" transform="translate(24.231 0.185)"/></g><g transform="translate(254.292 85.138)"><path class="f" d="M26.953,6.149a2.318,2.318,0,0,1,1.333-1.5A25.659,25.659,0,0,0,30.467-5.762c-.025-.82-1.343-1.087-1.5-.2-1.759,9.885-7.1,18.358-11.511,27.219C11.835,32.547,5.2,43.989,2.05,56.294c-1.6,6.25-2.311,12.54-4.991,18.5C-5.479,80.429-9.03,85.561-12.6,90.578c-6.213,8.728-13.041,17.209-15.952,27.7-.117.42.513.71.717.3C-17.5,98.066-.152,82.869,3.781,59.441c2.484-14.8,10.728-28.161,17.6-41.359,1.765-3.388,3.922-6.977,5.694-10.7a1.842,1.842,0,0,1-.126-1.23" transform="translate(28.568 6.514)"/></g><g transform="translate(304.289 55.412)"><path class="f" d="M4.131,15.682A32.72,32.72,0,0,0,2.654,3.422C1.486-.4-1.528-4.056-2.42-7.8c-.21-.875-1.407-8.666,1.014-6.013,1.392,1.526.175,5.429,1.139,6.944,1.576,2.475,4.454,3.8,6.283,6.236A.808.808,0,0,0,7.41-1.448C5.742-4.616,2.157-6.187.993-9.453c-.867-2.434-.523-5.7-3.172-7.062a.807.807,0,0,0-1.086.284c-1.487,2.809-1.38,7.249-.3,10.184C-2.309-2.659-.288.43.787,3.937A90.942,90.942,0,0,1,3.224,15.8c.091.542.873.365.908-.122" transform="translate(4.379 16.614)"/></g><g transform="translate(315.379 55.096)"><path class="f" d="M.373.8C8.865-.306,3.288,15.981,4.141,19.153c.233.861,3.959,4.543,3.681,4.1,2.556,4.034,2.2,8.884.807,13.2-.227.7.884,1.19,1.2.507a14.264,14.264,0,0,0,1.009-10.536c-.669-2.29-.808-1.753-1.755-3.909a16.7,16.7,0,0,0-1.259-1.853,8.773,8.773,0,0,1-.855-7.678c-.183-4.183.1-14.554-6.6-13.8C-.654-.694-.648.937.373.8" transform="translate(0.395 0.85)"/></g><g transform="translate(314.833 55.183)"><path class="f" d="M.385,9.337A49.375,49.375,0,0,0,1.7-9.132c-.12-.993-1.681-1.034-1.592,0A73.289,73.289,0,0,1-.4,9.122c-.086.507.661.737.787.216" transform="translate(0.409 9.892)"/></g><g transform="translate(323.724 86.494)"><path class="f" d="M1.043.353C1.789,3.2,2.689,6.144.734,8.62-.42,10.084-1.491,11.493-.97,13.43a.51.51,0,0,0,.921.121c.441-.7.641-1.433,1.03-2.154A14.087,14.087,0,0,1,2.713,9.244a4.021,4.021,0,0,0,.97-2.276C3.937,4.676,3.645,1.527,2-.205a.577.577,0,0,0-.956.558" transform="translate(1.106 0.374)"/></g><g transform="translate(308.29 94.184)"><path class="f" d="M.665,1.466q2.7-2.409,4.643.245A14.582,14.582,0,0,1,7.479,4.275,25.138,25.138,0,0,1,9.284,7.393c1.5,3.005,4.532,8.621,2.39,11.8-.55.816.61,1.534,1.275.984C17.4,16.485,10.386,5.787,7.838,2.605,6.515.951,3.992-1.7,1.592-1.547A2.19,2.19,0,0,0-.491,1.622c.227.57,1.191.564,1.156-.156" transform="translate(0.705 1.553)"/></g><g transform="translate(308.322 98.344)"><path class="f" d="M.124.426C4.232,2.162,6.345,5.7,8.154,9.6c.787,1.7,5.133,10.833,3.162,12.676a.885.885,0,0,0,1.067,1.384c3.407-2.08-.328-9.548-1.477-12.2C9.073,7.232,5.67.31.491-.447.013-.517-.424.195.124.426" transform="translate(0.131 0.451)"/></g><g transform="translate(303.299 64.54)"><path class="f" d="M1.64.912C.532-.612-1.5-2.377-1.728.831-1.9,3.177.235,6.52,1.22,8.618c1.728,3.676,4.064,7.027,5.191,10.956a.5.5,0,0,0,.952,0c.775-3.069-1.3-5.705-2.795-8.285-.981-1.7-2.206-3.3-3.139-5.009C.866,5.245-1.563-.985.823,1.542c.4.42,1.17-.144.816-.63" transform="translate(1.738 0.966)"/></g><g transform="translate(164.738 388.575)"><path class="g" d="M75.761,13.993q-.487,21.9-.972,43.8c-.566,25.4-1.292,51.572-11.533,74.825-1.32,3-2.863,6.02-5.4,8.089-1.988,1.619-4.484,2.564-6.324,4.349-1.485,1.44-2.46,3.347-3.976,4.757-2.235,2.076-5.414,2.854-8.392,3.233a46.565,46.565,0,0,1-14.475-.523s-52.489-4.547-65.81-3.427a10.032,10.032,0,0,1-5.346-1.061c-5.413-2.727-13.666-6.741-16.057-10.513a16.43,16.43,0,0,1,1.378-18.961c-4.017-1.656-8.575-3.672-12.04-6.294s-6.316-6.339-6.971-10.637A17.062,17.062,0,0,1-77.7,90.781,36.133,36.133,0,0,1-73.7,85.26c1.638-1.913,5.014-4.623,7.37-3.728a12.566,12.566,0,0,0,7.222.886c3.038-.69,5.387-3,7.875-4.879,5.282-3.981,22.632-3.962,29.247-4.123C-24.648,60.388-37.76,36.733-47.647,27.841-45.454,14.03-41.466,12.576-29.983,4.6S-4.949-7.834,8.615-11.23c14.706-3.682,30.946-6.088,44.476.746C64.9-4.517,69.125,1.256,76,12.558Z" transform="translate(80.301 14.824)"/></g><g transform="translate(138.624 204.084)"><path class="k" d="M8.29,0c3.5,14.068-6.664,30.8-17.021,39.866-.737,2.105,6.019,6.741,13.414,10.062C25.995,59.5,29.275,65.772,43.241,84.179c-2.948-12.762,1.827-22.229,5.467-34.812,1.72-5.943,4.182-11.883,3.8-18.061-.326-5.221-2.67-9.994-5.255-14.441C45.828,14.418,45.571,13.5,43,12.77c-2.313-.653,1.93-1.124-.453-1.567A90.437,90.437,0,0,1,22.786,5.031C20.539,4.078,10.939,1.106,8.29,0" transform="translate(8.786)"/></g><g transform="translate(249.47 190.46)"><path class="k" d="M5.9,0a36.69,36.69,0,0,1,29.78,20.267c-5.928,7.089-6.6,17.052-7.008,26.286Q17.572,36.038,5.484,26.63a42.13,42.13,0,0,0-5.6-3.853c-1.949-1.065-4.3-1.347-6.137-2.307.494-1.6,2.561-2.9,3.7-4.174A37.462,37.462,0,0,0,1.11,11.42,37.021,37.021,0,0,0,5.9,0" transform="translate(6.258)"/></g><g transform="translate(200.052 162.218)"><path class="f" d="M.364.112A7.793,7.793,0,0,0-.268,4.6a.846.846,0,0,0,1.042.591c1.452-.608,1.018-2.078.346-3.153A.677.677,0,0,0-.1,2.2c-.043.15-.033,1.557.223,1.444.414.169.83.338,1.244.505A6.949,6.949,0,0,1,1.009.289c.117-.42-.5-.575-.645-.177" transform="translate(0.386 0.119)"/></g><g transform="translate(203.965 160.996)"><path class="f" d="M.032.183a6.4,6.4,0,0,1,1.24,1.625,8.368,8.368,0,0,1,.418.754A3.724,3.724,0,0,0,2.467,3.6c.076.181.152.362.225.542A.708.708,0,0,1,2.8,3.787C3.085,3.171,2.3,2.4,1.779,3S.815,4.275,1.568,4.961A1.312,1.312,0,0,0,3.633,4.4C4.5,2.356,1.585.766.3-.159.1-.3-.156.024.032.183" transform="translate(0.034 0.194)"/></g><g transform="translate(191.338 172.971)"><path class="f" d="M.645.044C-.113.589-.138,1.59-.595,2.354A.7.7,0,0,0,.184,3.368,2.376,2.376,0,0,0,1.6,2.54.507.507,0,0,0,1.3,1.8a2.171,2.171,0,0,0-1.483.237L.6,3.052c.433-.768,1.254-1.724.9-2.657A.59.59,0,0,0,.645.044" transform="translate(0.684 0.047)"/></g><g transform="translate(193.015 168.916)"><path class="f" d="M.048,3.16c2.278-.216,4.507-.686,6.779-.943,2.53-.286,5.1-.019,7.618-.369,1.872-.26,3.58-.937,5.484-1.073A7.427,7.427,0,0,0,23.389.159a.955.955,0,0,0,0-1.633l-1.914-1.6c-.737-.83-2.015.43-1.224,1.225l.795.8c.412.414,1.242,0,1.028-.6-.124-.348-.251-.7-.375-1.044-.482.28-.964.562-1.448.842A5.858,5.858,0,0,0,22.436.159V-1.474c-1.242.607-2.528.231-3.829.375C15.992-.811,13.551.036,10.871.223,7.067.489,3.317,1.01,0,2.972c-.082.049-.054.2.051.189" transform="translate(0.051 3.348)"/></g><g transform="translate(191.725 170.391)"><path class="f" d="M11.525.253c.62,6.222-1.592,12.777-8.944,13.119-5.531.255-11.449-2.755-13.08-8.219a.87.87,0,0,0-1.677.463C-10.059,12.83-1.45,16.063,5.572,14.885c5.582-.935,9.688-10.069,6.952-14.9-.249-.437-1.053-.274-1,.27" transform="translate(12.215 0.268)"/></g><g transform="translate(192.282 171.532)"><path class="f" d="M.007,1.94c1.376,5,9.22,2.6,12.854,2.362,4.6-.294,9.366-.432,11.3-5.324.406-1.028-1.254-1.475-1.658-.457-.637,1.612-3.774,3.431-5.426,3.89a31.178,31.178,0,0,1-5.109.579C9.2,3.256,2.357,4.574.763,1.621a.416.416,0,0,0-.756.319" transform="translate(0.008 2.055)"/></g><g transform="translate(194.18 173.358)"><path class="f" d="M2.738,4.483A10.174,10.174,0,0,1,8.557.73c1.182-.268.649-1.938-.49-1.775-2.8.4-6.808,1.75-9.455.4-.956-.488-2.072.76-1.2,1.555Q-1.173,2.194.245,3.476a.993.993,0,0,0,1.368,0A8.984,8.984,0,0,0,3.294,1.569L1.648.607.606,2.425c-.451.791.48,1.825,1.292,1.293.286-.187.569-.371.853-.558L1.465,1.873c-.21.412-.418.824-.628,1.234a.936.936,0,0,0,1.615.945c3.391-4.59,8.911-3.322,13.013-.7.8.511,1.973-.55,1.362-1.365A12.959,12.959,0,0,0,12.9-1.582c-.08.606-.157,1.213-.237,1.82l2.571-.06c-.146-.554-.292-1.11-.439-1.664A2.558,2.558,0,0,0,13.779.535c-.124.848.958,1.843,1.664.968a8.725,8.725,0,0,0,1.568-2.811c-.639-.175-1.277-.352-1.918-.527a6.4,6.4,0,0,0-.12,2.6,1,1,0,0,0,1.852.5,14.232,14.232,0,0,0,1.384-3.429q-.977-.131-1.949-.264L15.967.23c-.126,1.174,1.6,1.256,1.951.264q.705-2.009,1.4-4.022l-1.936-.26A14.986,14.986,0,0,1,15.68,1.639c-.569,1.112,1.114,2.1,1.675.98a19.677,19.677,0,0,0,1.967-6.147.986.986,0,0,0-1.9-.523Q16.707-2.044,16-.034c.649.089,1.3.177,1.949.264l.292-2.659c.122-1.127-1.671-1.322-1.951-.262A8.369,8.369,0,0,1,15.108.263l1.852.5.051-2.07a1,1,0,0,0-1.918-.527Q14.565-.869,14.036.1l1.662.968L16.2-.079a1,1,0,0,0-.439-1.664,9.267,9.267,0,0,0-3.628.06A1.007,1.007,0,0,0,11.9.137a8.3,8.3,0,0,1,3.211,2.858L16.473,1.63C11.307-1.673,4.818-2.186.837,3.107c.538.317,1.077.63,1.615.945L3.09,2.823C3.5,2.032,2.637,1,1.8,1.534l-.857.552q.644.647,1.292,1.293c.352-.6.7-1.207,1.055-1.81C3.928.481,2.365-.347,1.648.607q-.7.749-1.4,1.5H1.613q-1.4-1.3-2.8-2.6-.6.779-1.2,1.557c3.4,1.691,7.4.319,10.944-.334l-.49-1.775a9.737,9.737,0,0,0-6.2,4.852c-.284.531.457,1.186.875.676" transform="translate(2.902 4.75)"/></g><g transform="translate(182.069 152.896)"><path class="f" d="M.308,2.314A10.276,10.276,0,0,1,4.579-.446C6.1-.909,7.456.133,8.968-.378a1,1,0,0,0-.533-1.934c-.97.241-1.975-.249-2.962-.117A5.755,5.755,0,0,0,3.2-1.474,10.677,10.677,0,0,0-.275,1.865a.373.373,0,0,0,.583.449" transform="translate(0.326 2.452)"/></g><g transform="translate(206.774 149.333)"><path class="f" d="M5.144.961A15.4,15.4,0,0,0-.088-.982,4.326,4.326,0,0,0-2.257-.7,20.881,20.881,0,0,0-5.073.477.788.788,0,0,0-5.23,1.7c1.224,1.289,2.357.309,3.619-.435C.5.024,2.736,1.447,4.963,1.624c.363.027.468-.494.181-.663" transform="translate(5.452 1.019)"/></g><g transform="translate(185.302 153.966)"><path class="f" d="M.5,0C-.41-.095-.61,1.384-.5,1.991a2.69,2.69,0,0,0,2.013,2,.869.869,0,0,0,.948-.387c.021-.029.043-.06.064-.091a.786.786,0,0,0-.674-1.174c-.383.016-.76-.593-.81-.906C.99,1.1,1.128.776,1.073.442A.606.606,0,0,0,.5,0" transform="translate(0.526 0.002)"/></g><g transform="translate(186.413 153.982)"><path class="f" d="M1.084,1.629C1.908.739,2.75.466,2.647-.941a.791.791,0,0,0-1.582,0C1.047-.513.624-.123.412.218A1.588,1.588,0,0,0,.175.672.418.418,0,0,0,.118.88q-.1.338.418.027C.258,1.271-.018,1.637-.3,2a3.282,3.282,0,0,0,1.37-.045,6.807,6.807,0,0,0,1.211-.77,2.251,2.251,0,0,0,.84-2.294l-1.65.455C1.525-.43.977.41.833.674a.676.676,0,0,0,.1.791L1,1.547a.77.77,0,0,0,.77.2c.622-.2.7-.595.987-1.118a2.235,2.235,0,0,0,.363-1.742c-.26-1.092-1.817-.607-1.65.455C1.547-.193.462.3.134.56.338.476.54.391.742.307A7.726,7.726,0,0,1-.3.274a.874.874,0,0,0-.834,1.092,1.545,1.545,0,0,0,2.548.669c.338-.362.288-.816.548-1.205a3,3,0,0,0,.68-1.771H1.065C1.144-.333.938-.233.548.15a1.728,1.728,0,0,0-.527.859.641.641,0,0,0,1.063.62" transform="translate(1.149 1.726)"/></g><g transform="translate(209.102 150.236)"><path class="f" d="M.254.417c-1.308,1.24.062,3.27,1.625,3.345A3,3,0,0,0,4.015,2.672,2.6,2.6,0,0,0,4.487.236c-.144-.853-1.333-.69-1.566,0a10.536,10.536,0,0,1-.632,1.792c.165-.128.332-.255.5-.383a1.644,1.644,0,0,0-.81.4l1.4.816a4.568,4.568,0,0,0,.395-1.7,2.147,2.147,0,0,0-.515-1.39A.7.7,0,0,0,2.1.073a2.168,2.168,0,0,0-.025,1.083A4.175,4.175,0,0,1,1.76,2.413c-.163.772.8,1.472,1.4.816-.22.237.185-.01.266-.06A1.2,1.2,0,0,0,3.863,2.6,17.522,17.522,0,0,0,4.487.668H2.921C3.047,1.334,2.864,2.192,2,2c-.618-.142-.641-.78-.742-1.314a.606.606,0,0,0-1-.264" transform="translate(0.269 0.442)"/></g><g transform="translate(204.153 187.042)"><path class="f" d="M.075,1.311a8.57,8.57,0,0,0,6.009.255C7.435,1.195,9.17.66,9.293-.955a.432.432,0,0,0-.647-.371A12.011,12.011,0,0,1,.3.779C.009.738-.258,1.16.075,1.311" transform="translate(0.079 1.389)"/></g><g transform="translate(201.964 117.975)"><path class="f" d="M.282,1.482C8.7-3.642,14.143,4.5,20.442,8.539c5.065,3.248,9.945,7.325,12.825,12.787,2.7,5.134,2.39,10.966,3.539,16.482C38.65,46.655,46.2,53.995,46.57,63.087c.381,9.28-6.388,17.064-6.1,26.468.045,1.417,2.251,1.423,2.208,0-.4-12.63,9.282-21.776,4.07-34.569-2.089-5.128-5.529-9.622-7.154-14.966-1.708-5.61-1.139-11.691-3.316-17.2C32.415,13.06,23.6,9.507,16.147,3.4,10.926-.866,5.953-3.887-.124.786c-.4.305-.052.974.406.7" transform="translate(0.299 1.57)"/></g><g transform="translate(224.892 153.069)"><path class="f" d="M9.6,14.066A31.445,31.445,0,0,0,3.535-.994,29.313,29.313,0,0,0-1.749-6.13C-5.092-8.752-6.8-11.569-9.358-14.761c-.288-.358-.97.029-.791.459,1.975,4.718,3.327,6.825,7.374,9.926A29.953,29.953,0,0,1,8.888,14.264c.089.476.779.262.715-.2" transform="translate(10.178 14.901)"/></g><g transform="translate(153.713 112.35)"><path class="f" d="M23.744,4.036c-.772-4.8-7.78-7.2-11.935-7.974-7.08-1.32-13.744,1.388-19.4,5.48-5.471,3.958-12.545,9.6-15.138,16.117-1.189,2.992-1.182,6.254-1.271,9.418-.179,6.273-.927,12.478-1.166,18.737a.271.271,0,0,0,.531.072c3.763-11.759-.292-24.995,8.74-34.617C-11.623,6.714-6.739,2.245-1.06-.416c7.317-3.425,19.374-3.649,23.728,4.9.327.64,1.176.159,1.077-.453" transform="translate(25.167 4.275)"/></g><g transform="translate(158.348 204.17)"><path class="h" d="M13.818,102.548c-1.842-12.412-3.642-25.368.315-37.274C16.57,57.939,21.05,51.488,24.61,44.628,31.6,31.145,38.784,15.512,33.667,1.206,28.618-12.9,15.548-23.194,11.243-37.547.758-66.9-19.847-74.241-13.433-82.038c8.45-10.274,23.252-17.6,36.285-14.945,13.392,13.094,35.2,19.328,52.26,11.605,2.8-1.269,5.724-3.056,5.473-6.936a7.39,7.39,0,0,0-2.272-4.718,25.238,25.238,0,0,0-8.65-5.46c7.307-.725,9.993.239,13.618-6.151A67.216,67.216,0,0,1,98.062-94.127a52.3,52.3,0,0,0,13.381,12.6,43.233,43.233,0,0,1,16.646,23c3.553,11.941,2.95,24.684,1.973,37.105s-2.289,25-.072,37.265c4.258,23.535,20.7,44.492,21.178,68.406.1,5.1-.643,10.215-.185,15.3.3,3.268,1.086,6.518.84,9.79s-1.837,6.728-4.868,7.976c-.626-7.428-5.067-14.227-10.815-18.943a27.415,27.415,0,0,0-12.982-5.884C102.946,89.229,89.619,108.6,71.181,112.4c-12.745,2.626-26.734-2.478-38.656,2.743a24.413,24.413,0,0,0-14.108,18.629c-5.195-10.005-2.944-20.075-4.6-31.227" transform="translate(14.646 108.642)"/></g><g transform="translate(97.399 372.686)"><path class="d" d="M.122,1.561C-.722,3.346.7,4.916,2.374,3.865a24.7,24.7,0,0,0,2.492-2.02c.144-.117.3-.233.449-.348A30.361,30.361,0,0,1,2.9-1.654,8.337,8.337,0,0,0,.122,1.561" transform="translate(0.129 1.654)"/></g><g transform="translate(75.258 360.855)"><path class="d" d="M52.988,0A63.32,63.32,0,0,1,39.427,15.886C30.866,26.462,27.072,39.953,18.552,50.674A85.141,85.141,0,0,1,3.687,65.282c-2.1,1.61-4.7,4.038-7.465,4.467-1.811.278-3.819-.783-5.665-.6-.564.058-.655-.836-.13-.968,1-.253,9-1.7,8.229-1.217,3.873-1.547,7.626-5.348,10.557-8.079a70.118,70.118,0,0,0,13.4-17.227c3.945-7.078,6.555-14.955,11-21.579a46.627,46.627,0,0,1-7.389,3.754c-10.934,4.331-23.176,3.557-34.642.989a.889.889,0,0,1-.8.268A30.257,30.257,0,0,1-27.3,16.348c-.387.321-.772.645-1.158.966a10.292,10.292,0,0,1-3.6,2.4,3.1,3.1,0,0,1-4.124-3.235c.2-2.547,2.107-4.761,4.217-6.2a29.53,29.53,0,0,1-2.929-6.907A47.531,47.531,0,0,1-46.721,16c-2.618,1.946-8.734,3.969-9.368,7.554-.74,4.2,4.2,11.982,6.2,15.553C-39.917,56.978-22.441,69.39-3.491,76.3c8.685,3.165,22.55,8.6,31.138,4.448,4.962-2.4,10.532-12.956,12.172-17.917,5.057-15.3,8.724-32.786,19.876-45.046a1.085,1.085,0,0,1,.239-.171Q56.605,8.749,52.988,0" transform="translate(56.164)"/></g><g transform="translate(102.124 367.566)"><path class="d" d="M2.385,2.312a1,1,0,0,0,.7-1.489A2.24,2.24,0,0,0,2.511-.9a13.965,13.965,0,0,0-.826-1.547A14.663,14.663,0,0,1-2.526,1.184a.711.711,0,0,1,0,.157A27.688,27.688,0,0,0-.081,4.5,15.658,15.658,0,0,0,2.385,2.312" transform="translate(2.528 2.449)"/></g><g transform="translate(97.584 321.815)"><path class="d" d="M.315,19.209c-.039.07-.082.134-.12.2A27.192,27.192,0,0,0,3.289,27.7c1.38-1.582,3.3-2.908,4.627-4.492a.915.915,0,0,1,1.425.183c.857,1.5,2.731,3.622,2.876,5.4.1,1.271-.913,1.954-1.772,2.69s-1.722,1.444-2.587,2.164a28.218,28.218,0,0,0,16.43,7.918,1.13,1.13,0,0,1,.744.4c10.468,1.868,21.765,2.7,31.581-.521C69.05,37.379,77.708,27.776,85.027,17.409a.973.973,0,0,1,.678-.418c-7.259-8-14.6-9.895-26.037-10.629C51.252,5.82,40.485,6.706,33.9.521,32.83-.488,34.446-2.1,35.515-1.093a19.007,19.007,0,0,0,8.849,4.471,15.873,15.873,0,0,1-6.095-7.855,23.59,23.59,0,0,1-1.275-6.044c-.1-1.056.83-8.316.414-8.958C35.906-21.8,29.572-18.85,27.05-18c-13.915,4.675-26,14.132-27.3,29.8a27.619,27.619,0,0,0,.28,6.656.509.509,0,0,1,.282.756" transform="translate(0.334 20.351)"/></g><g transform="translate(197.393 211.236)"><path class="d" d="M32.286,11.593C29.658,4.945,26.364-2.17,22-7.881c-4.7-6.156-6.474-4-11.9-4.162C27.812,12.985,28.156,43.576,21.546,72.9,16.3,96.151,1.26,117.964-20.126,128.683c-2.742,1.374-13.83,4.5-14.094,7.041-.029.292,2.567,5.14,2.746,6.158.363,2.039-.7,5.764,2.01,6.635,1.347.435,9.134-4.731,10.252-5.287,6.237-3.1,12.456-6.221,18.451-9.778C13.578,124.945,21,111.841,28.3,97.3a103.548,103.548,0,0,0,11.332-43.54,106.181,106.181,0,0,0-7.342-42.163" transform="translate(34.22 12.282)"/></g><g transform="translate(186.017 358.887)"><path class="d" d="M4.24,0A32.278,32.278,0,0,0-4.494,1.328Q-1.069,10.2,2.635,18.951a14.621,14.621,0,0,1,5.609-3.857C7.73,9.07,8.6,5.033,4.24,0" transform="translate(4.494 0)"/></g><g transform="translate(72.531 207.135)"><path class="f" d="M90.964,55.2C83.672,69.744,76.246,82.848,61.905,91.355c-6,3.557-12.213,6.677-18.449,9.778-1.119.558-8.9,5.723-10.254,5.287-2.705-.871-1.644-4.6-2.008-6.635-.181-1.017-2.775-5.867-2.746-6.158.262-2.537,11.35-5.667,14.092-7.041C63.928,75.868,78.973,54.055,84.212,30.8,90.822,1.48,90.48-29.111,72.773-54.139c5.426.159,7.2-1.994,11.9,4.162C89.03-44.266,92.326-37.151,94.954-30.5A106.221,106.221,0,0,1,102.3,11.66,103.577,103.577,0,0,1,90.964,55.2M24.2,112.223q-3.708-8.751-7.129-17.623a32.43,32.43,0,0,1,8.734-1.328c4.357,5.033,3.49,9.07,4,15.094a14.642,14.642,0,0,0-5.609,3.857M2.3,158.068c-1.64,4.961-7.208,15.516-12.17,17.917-8.588,4.156-22.453-1.283-31.138-4.448-18.953-6.907-36.428-19.319-46.4-37.191-1.994-3.571-6.938-11.352-6.2-15.553.632-3.583,6.748-5.606,9.366-7.552A47.567,47.567,0,0,0-72.418,98.615a29.529,29.529,0,0,0,2.929,6.907c-2.111,1.437-4.021,3.651-4.217,6.2a3.105,3.105,0,0,0,4.124,3.235,10.317,10.317,0,0,0,3.6-2.4c.385-.321.77-.645,1.156-.966a30.262,30.262,0,0,0,18.09,8.738.889.889,0,0,0,.8-.268c11.466,2.568,23.708,3.342,34.64-.989a46.379,46.379,0,0,0,7.389-3.754c-4.445,6.625-7.053,14.5-11,21.579a70.118,70.118,0,0,1-13.4,17.227c-2.931,2.731-6.684,6.533-10.557,8.079.777-.482-7.224.966-8.229,1.217-.525.132-.433,1.026.132.968,1.846-.179,3.854.884,5.663.6,2.769-.43,5.37-2.858,7.465-4.467A85.152,85.152,0,0,0-18.97,145.914C-10.452,135.194-6.656,121.7,1.9,111.126a63.312,63.312,0,0,0,13.56-15.886q3.615,8.751,6.946,17.61a1.2,1.2,0,0,0-.239.173C11.019,125.282,7.352,142.763,2.3,158.068m-69.117-52.326a.709.709,0,0,0,0-.157,14.607,14.607,0,0,0,4.211-3.633,13.831,13.831,0,0,1,.828,1.547,2.243,2.243,0,0,1,.567,1.726,1,1,0,0,1-.7,1.489,15.451,15.451,0,0,1-2.464,2.187,27.371,27.371,0,0,1-2.449-3.159m.719,4.481c-.15.117-.307.231-.449.35a24.68,24.68,0,0,1-2.492,2.018c-1.673,1.052-3.1-.519-2.252-2.3a8.318,8.318,0,0,1,2.775-3.215,29.831,29.831,0,0,0,2.418,3.151m-5.172-21.873c1.294-15.668,13.383-25.127,27.3-29.8,2.523-.848,8.856-3.8,10.357-1.477.418.643-.509,7.9-.412,8.959a23.669,23.669,0,0,0,1.273,6.044,15.884,15.884,0,0,0,6.095,7.855,19,19,0,0,1-8.849-4.473c-1.067-1.007-2.684.607-1.611,1.613,6.581,6.187,17.349,5.3,25.765,5.841,11.435.735,18.78,2.634,26.037,10.631a.97.97,0,0,0-.676.418C6.682,104.328-1.977,113.929-14.413,118c-9.816,3.215-21.114,2.389-31.581.521a1.126,1.126,0,0,0-.744-.4,28.214,28.214,0,0,1-16.43-7.919c.863-.719,1.734-1.431,2.587-2.162s1.875-1.419,1.772-2.692c-.148-1.783-2.019-3.9-2.878-5.4a.914.914,0,0,0-1.423-.185c-1.325,1.586-3.248,2.91-4.629,4.494a27.207,27.207,0,0,1-3.092-8.289c.039-.07.082-.134.12-.2a.51.51,0,0,0-.282-.756,27.717,27.717,0,0,1-.282-6.656M81.517-58.144a1.185,1.185,0,0,0-1.425-.183,11.532,11.532,0,0,1-9.06,1.722c-1.465-.173-1.473,2.068-.076,2.319,7.871,12.816,14.833,27.154,15.258,42.463a163.427,163.427,0,0,1-5.1,45.052,97.829,97.829,0,0,1-20,36.827c-9.16,10.384-22.678,16-35.1,21.469a26.873,26.873,0,0,0-9.954,1.52C13.006,88.977,9.941,85.6,5.01,83.591c-6.816-2.786-15.845-2.066-24.157-2.62-13.4-1.909-13.692-16.239-11.941-26.583a1.045,1.045,0,0,0-1.269-1.269C-50.3,57.742-69.774,65.019-73.135,85.75a29.943,29.943,0,0,0,.282,11.026c-6.219,8.174-13.476,14.393-23.03,18.6a1.1,1.1,0,0,0-.5,1.229c7.941,33.017,37.493,54.128,69.267,61.383,5.891,1.343,13.534,3.412,19.419.974a8.944,8.944,0,0,0,3.047-1.823.6.6,0,0,0,.08-.3,15.809,15.809,0,0,1,2.146-6.119c.807-1.409,2.177-2.655,3.1-3.995,4.542-6.629,5.64-15.065,8.337-22.538,3.714-10.279,7.35-20.983,14.8-29.207a.784.784,0,0,0,.785-.255,18.969,18.969,0,0,1,6.274-4.78c.01-.006.016-.014.025-.019a1.035,1.035,0,0,0,.492-.13c15.3-8.553,35.354-14.954,46.75-28.925C88.7,67.927,97.191,50.218,101.326,34.052c8.159-31.9.5-66.431-19.81-92.2" transform="translate(96.415 58.48)"/></g><g transform="translate(181.1 424.621)"><path class="l" d="M43.783,0c.36,17.863,2.064,49,2.424,66.867.122,6.069.208,12.324-2.216,17.962A24.321,24.321,0,0,1,29.171,97.969c-6.66,2.154-13.768-.052-20.8-.554a356.538,356.538,0,0,0-52-.056,15.322,15.322,0,0,0-2.783,4.973,600.556,600.556,0,0,1,60.24,1.5c9.844.743,20.745,1.46,28.569-4.123,5.175-3.691,8.03-9.634,9.043-15.612s.379-12.076-.257-18.1c-1.868-17.7-5.537-48.3-7.4-66" transform="translate(46.407)"/></g><g transform="translate(680.182 202.29)"><path class="h" d="M0,6.326,61.462-6.7,54.048,7.93Z" transform="translate(0 6.702)"/></g><g transform="translate(680.182 205.408)"><path class="d" d="M0,4.812,63.621-5.1,56.209,9.532Z" transform="translate(0 5.098)"/></g><g transform="translate(653.168 209.52)"><path class="h" d="M13.114,2.816q35.149-2.9,70.3-5.8C71.9,23.1,61.882,48.2,50.376,74.282L-13.9,82.668Z" transform="translate(13.9 2.983)"/></g><g transform="translate(658.148 214.745)"><path class="m" d="M1.086,38.595,27.83-40.888l-2.2.181L-1.151,38.886Z" transform="translate(1.151 40.888)"/></g><g transform="translate(59.372 228.386)"><path class="n" d="M22.447,18.311l-41.7-37.71L-23.792-4.254Z" transform="translate(23.792 19.399)"/></g><g transform="translate(55.289 229.96)"><path class="d" d="M24.429,17.546-21.355-18.589-25.893-3.444Z" transform="translate(25.893 18.589)"/></g><g transform="translate(18.849 230.349)"><path class="o" d="M42.119,17.358Q14.938-.514-12.242-18.389l-32.4,76.742L6.144,94.078Z" transform="translate(44.643 18.389)"/></g><g transform="translate(64.307 262.563)"><path class="p" d="M0,37.05l35.931-76.3,1.7,1.12L1.652,38.275Z" transform="translate(0 39.252)"/></g></g></svg>