<svg xmlns="http://www.w3.org/2000/svg" xmlns:xlink="http://www.w3.org/1999/xlink" width="807.149" height="698.594" viewBox="0 0 807.149 698.594"><defs><style>.a{fill:#5a66f5;}.b{fill:url(#a);}.c{fill:#5661ef;}.d{fill:#6671f6;}.e{fill:#6a75ff;}.f{fill:#5046af;}.g{fill:#c2c5ff;}.h{fill:#b0b0ff;}.i{fill:#8383dd;}.j{fill:#827ddc;}.k,.n{fill:#fff;}.l,.m,.n{opacity:0.51;}.l{fill:url(#c);}.m{fill:url(#d);}.o{fill:#fab9af;}.p{fill:#41378c;}.q{fill:#4d58df;}.r{fill:#fa968c;}.s{fill:#d2f0ff;}.t{fill:#46738c;}.u{fill:#3c5a73;}</style><linearGradient id="a" x1="0.011" y1="0.499" x2="0.986" y2="0.499" gradientUnits="objectBoundingBox"><stop offset="0" stop-color="#6671f6"/><stop offset="0.306" stop-color="#5a66f5"/><stop offset="0.995" stop-color="#6671f6"/><stop offset="1" stop-color="#b0c1e0"/></linearGradient><linearGradient id="c" x1="0.751" y1="0.019" x2="0.079" y2="0.685" gradientUnits="objectBoundingBox"><stop offset="0" stop-color="#fff"/><stop offset="1" stop-color="#fff" stop-opacity="0"/></linearGradient><linearGradient id="d" x1="0.67" y1="0.283" x2="0.149" y2="0.949" xlink:href="#c"/></defs><path class="a" d="M502.322,32.045a98.641,98.641,0,0,0-102.16,20.2,40.1,40.1,0,0,1-44.553,7.463C321.3,43.879,281.146,47.142,251.831,71.065a213.261,213.261,0,0,0-45.972,51.449,194.048,194.048,0,0,1-88.794,76.138c-2.838,1.135-5.42,2.327-8.059,3.547a58.43,58.43,0,0,0-33.713,59.593,24.859,24.859,0,0,1,0,6.64,24.036,24.036,0,0,1-19.609,20.12l-1.192.17A41.29,41.29,0,0,0,18.14,329.3v.568c0,81.331,81.388,147.281,181.76,147.281a212.606,212.606,0,0,0,98.812-23.667,198.815,198.815,0,0,1,101.11-23.7q5.9.255,11.919.255c129.942,0,235.28-92.654,235.28-206.959C646.794,137.043,587.172,63.459,502.322,32.045Zm-22.5,85.332a23.355,23.355,0,1,1,19.07-19.07,23.355,23.355,0,0,1-19.07,19.07Z" transform="translate(54.223 50.298)"/><path class="b" d="M677.575,278.3C454.938,278.3,274,292.441,274,310.209s180.575,31.909,403.575,31.909,403.575-14.141,403.575-31.909C1080.787,292.442,900.212,278.3,677.575,278.3Z" transform="translate(-274 356.476)"/><path class="b" d="M376.078,278.3C319.765,278.3,274,281.877,274,286.371s45.674,8.071,102.078,8.071,102.078-3.577,102.078-8.071C478.064,281.877,432.391,278.3,376.078,278.3Z" transform="translate(-128.048 287.207)"/><path class="c" d="M193.15,97.019a6.243,6.243,0,0,0-6.073-3.831l-4.6.255,2.469-3.632a6.811,6.811,0,0,0,0-7.69A95.463,95.463,0,0,0,160.4,57.4a7.492,7.492,0,0,0-8-.341L147.718,59.9l.369-2.639a9.251,9.251,0,0,0-5.278-9.705c-42.992-19.723-91.235-10.358-75,7.35a22.7,22.7,0,0,0,5.676,4.313c3.831,2.242,12.6,7.492,23.043,14.955a10.386,10.386,0,0,0,10.1,1.107l1.022-.454a1.618,1.618,0,0,1,2.213,1.873h0a10.244,10.244,0,0,0,3.377,10.386c4.03,3.377,8.059,6.981,11.947,10.784A10.3,10.3,0,0,0,136.537,100l.908-.4a1.618,1.618,0,0,1,2.213,1.845l-1.362,4.54a10.358,10.358,0,0,0,1.759,8.655,98.5,98.5,0,0,1,7.407,11.351,10.273,10.273,0,0,0,7.151,5.193l2.5.454a1.589,1.589,0,0,1,.766,2.838l-.369.341a10.415,10.415,0,0,0-3.15,9.705,1.02,1.02,0,0,0,0,.312c8.2,45.773,19.864,165.3,19.864,165.3S223.855,169.581,193.15,97.019Z" transform="translate(139.579 70.291)"/><path class="d" d="M193.239,97.145a6.3,6.3,0,0,0-6.1-3.859h-1.845a1.362,1.362,0,0,1-1.192-2.157l.936-1.334a6.754,6.754,0,0,0,0-7.69,95.463,95.463,0,0,0-24.547-24.717,7.378,7.378,0,0,0-7.974-.369l-2.242,1.305a1.362,1.362,0,0,1-2.072-1.391h0a9.138,9.138,0,0,0-5.193-9.507c-41.46-18.9-87.829-10.9-76.79,5.449a4.909,4.909,0,0,0,4.54,2.185,119.187,119.187,0,0,1,62.885,13.763,7.463,7.463,0,0,0,6.5.312L145,67.065l-.653,2.526a7.407,7.407,0,0,0,2.838,7.719A96.682,96.682,0,0,1,163.5,92.491a5.676,5.676,0,0,0,6.413,1.447l1.589-.681a1.788,1.788,0,0,1,2.441,2.072l-1.5,5.959a6.584,6.584,0,0,0,.681,4.909h0c25.881,45.4,11.72,126.537-1.163,177.248a5.307,5.307,0,0,0,0,1.759v.482a5.051,5.051,0,0,0,9.875.88C194.289,243.575,216.2,151.489,193.239,97.145Z" transform="translate(139.547 70.189)"/><path class="d" d="M235.046,166.057c-10.443-28.378-22.7-48.923-36.04-63.651a3.093,3.093,0,0,0-3.491-.795l-5.363,2.213a3.093,3.093,0,0,1-4.058-4.313l2.185-4.711a3.122,3.122,0,0,0-.766-3.689,95.009,95.009,0,0,0-49.264-22.248,3.15,3.15,0,0,0-2.838,1.249l-1.5,2.072a3.122,3.122,0,0,1-5.676-1.5h0a3.122,3.122,0,0,0-3.036-2.838A145.919,145.919,0,0,0,91.142,71.7c-14.189,3.15-49.661,20.148-49.179,35.018.426,12.061,54.571,9.932,100.968,38.764a3.122,3.122,0,0,0,3.178,0l2.327-1.305a3.093,3.093,0,0,1,4.484,3.661l-.454,1.447a3.15,3.15,0,0,0,1.107,3.434,128.041,128.041,0,0,1,19.666,18.36c1.5,1.7,2.838,3.49,4.342,5.335a3.178,3.178,0,0,0,3.207,1.135l3.632-.851a3.122,3.122,0,0,1,3.292,5.108l-2.043,2.838a3.093,3.093,0,0,0,0,3.405c30.449,48.242,42.737,122.025,46.511,150.175a3.093,3.093,0,0,0,5.988.653C247.532,314.16,265.467,248.75,235.046,166.057Z" transform="translate(97.996 127.921)"/><path class="e" d="M235.046,166.057c-10.443-28.378-22.7-48.923-36.04-63.651a3.093,3.093,0,0,0-3.491-.795l-5.363,2.213a3.093,3.093,0,0,1-4.058-4.313l2.185-4.711a3.122,3.122,0,0,0-.766-3.689,95.009,95.009,0,0,0-49.264-22.248,3.15,3.15,0,0,0-2.838,1.249l-1.5,2.072a3.122,3.122,0,0,1-5.676-1.5h0a3.122,3.122,0,0,0-3.036-2.838A145.919,145.919,0,0,0,91.142,71.7c-14.189,3.15-49.661,20.148-49.179,35.018,0,2.1,1.788,3.774,4.8,5.25a25.71,25.71,0,0,0,20.773.539,76.622,76.622,0,0,1,10.244-3.292,171.909,171.909,0,0,1,20.716-3.349,3.122,3.122,0,0,0,2.7-2.1l3.32-9.932a3.122,3.122,0,0,1,5.676-.255l4.682,10.358a3.093,3.093,0,0,0,2.639,1.816,100.323,100.323,0,0,1,15.778,2.3,3.178,3.178,0,0,0,3.008-.88l6.271-6.726a3.122,3.122,0,0,1,5.392,2.157v8a3.093,3.093,0,0,0,1.873,2.838,102.643,102.643,0,0,1,34.224,24.8,3.037,3.037,0,0,0,2.753.993l8.513-1.135a3.122,3.122,0,0,1,2.838,5.108l-3.405,4.058a3.15,3.15,0,0,0,0,3.859,197.824,197.824,0,0,1,21.879,39.5,3.065,3.065,0,0,0,1.9,1.759l8.825,2.838a3.122,3.122,0,0,1,.341,5.817l-3.292,1.5a3.122,3.122,0,0,0-1.618,3.888c20.858,58.487,17.594,108.091,10.67,140.47a2.838,2.838,0,0,0,0,.993c.142,1.192.2,1.845.2,1.845S274.094,272.161,235.046,166.057Z" transform="translate(97.996 127.925)"/><path class="c" d="M135.57,137.381c12.713-20.46,25.54-34.507,38.338-43.872a2.44,2.44,0,0,1,2.838,0l3.831,2.582a2.469,2.469,0,0,0,3.8-2.639l-.965-4.03a2.526,2.526,0,0,1,1.22-2.838,75.826,75.826,0,0,1,42-9.478,2.44,2.44,0,0,1,2.072,1.447l.851,1.873a2.5,2.5,0,0,0,4.626-.284h0a2.5,2.5,0,0,1,2.838-1.7,117.4,117.4,0,0,1,25.937,8.513c10.5,4.711,35.557,23.667,32.776,35.217-2.27,9.336-44.184-.993-84.992,14.189a2.554,2.554,0,0,1-2.526-.454l-1.589-1.391a2.469,2.469,0,0,0-4.086,2.128v1.22a2.469,2.469,0,0,1-1.419,2.5,100.66,100.66,0,0,0-18.275,11.181c-1.447,1.107-2.838,2.242-4.257,3.462a2.469,2.469,0,0,1-2.668.369l-2.838-1.249a2.5,2.5,0,0,0-3.349,3.207l1.107,2.838a2.384,2.384,0,0,1-.511,2.667c-31.5,32.748-52.9,88.34-60.36,109.737a2.5,2.5,0,0,1-4.8-.426C102.056,250.977,98.537,197.06,135.57,137.381Z" transform="translate(210.837 144.641)"/><path class="d" d="M135.438,137.381c12.713-20.46,25.54-34.507,38.338-43.872a2.44,2.44,0,0,1,2.838,0l3.831,2.582a2.469,2.469,0,0,0,3.8-2.639l-.965-4.03a2.526,2.526,0,0,1,1.22-2.838,75.826,75.826,0,0,1,42-9.478,2.44,2.44,0,0,1,2.072,1.447l.851,1.873a2.5,2.5,0,0,0,4.626-.284h0a2.5,2.5,0,0,1,2.838-1.7,117.4,117.4,0,0,1,25.937,8.513c10.5,4.711,35.557,23.667,32.776,35.217-.4,1.618-1.986,2.639-4.569,3.32a20.631,20.631,0,0,1-16.317-2.838,61.009,61.009,0,0,0-7.463-4.228,131.759,131.759,0,0,0-15.636-5.931,2.469,2.469,0,0,1-1.759-2.072l-.965-8.513a2.5,2.5,0,0,0-4.484-1.163l-5.307,7.321a2.469,2.469,0,0,1-2.355.993,84.453,84.453,0,0,0-12.685-.738,2.412,2.412,0,0,1-2.185-1.163l-3.831-6.243a2.5,2.5,0,0,0-4.569.795l-1.22,6.271a2.5,2.5,0,0,1-1.958,1.958,81.614,81.614,0,0,0-30.648,13.877,2.5,2.5,0,0,1-2.27.312l-6.5-2.242a2.469,2.469,0,0,0-3.008,3.519l1.986,3.717a2.412,2.412,0,0,1-.511,3.008,160.424,160.424,0,0,0-23.412,27.356,2.356,2.356,0,0,1-1.759,1.05l-7.35.823a2.469,2.469,0,0,0-1.192,4.455l2.327,1.7a2.526,2.526,0,0,1,.653,3.32A203.838,203.838,0,0,0,107.77,278.674a2.442,2.442,0,0,1,0,.794c-.312.908-.454,1.419-.454,1.419S88.019,213.944,135.438,137.381Z" transform="translate(210.969 144.644)"/><rect class="f" width="356.737" height="237.693" rx="8.85" transform="translate(319.165 313.578)"/><rect class="g" width="319.591" height="200.489" transform="translate(337.724 332.16)"/><rect class="h" width="319.591" height="19.155" transform="translate(337.724 513.522)"/><rect class="h" width="319.591" height="9.507" transform="translate(337.724 332.092)"/><path class="g" d="M471.579,217.088h-349.7A23.979,23.979,0,0,1,97.9,193.08H495.473a23.979,23.979,0,0,1-23.894,24.008Z" transform="translate(200.804 358.255)"/><path class="h" d="M471.579,208.83h-349.7a23.951,23.951,0,0,1-22.5-15.75H97.9a23.979,23.979,0,0,0,23.979,24.008h349.7a23.979,23.979,0,0,0,23.979-24.008h-1.5a23.922,23.922,0,0,1-22.475,15.75Z" transform="translate(200.804 358.255)"/><rect class="h" width="374.984" height="4.711" transform="translate(310.027 546.653)"/><path class="f" d="M210.378,201.111H165.2a8.031,8.031,0,0,1-8.031-8.031h61.239a8,8,0,0,1-8.031,8.031Z" transform="translate(309.729 358.255)"/><rect class="i" width="43.872" height="7.577" transform="translate(349.103 539.076)"/><rect class="i" width="43.872" height="7.577" transform="translate(603 539.076)"/><path class="j" d="M155,160.857H276.088a9.393,9.393,0,0,1,9.393,9.393v2.469a9.393,9.393,0,0,1-9.393,9.393H155V160.857Z" transform="translate(305.741 298.834)"/><path class="f" d="M202.289,160.82H129.84v4.03h66.688v13.224H129.84v4.058h72.449a5.193,5.193,0,0,0,5.193-5.193V166.013a5.193,5.193,0,0,0-5.193-5.193Z" transform="translate(259.503 298.871)"/><rect class="k" width="68.277" height="13.224" transform="translate(392.578 463.719)"/><rect class="g" width="68.277" height="3.093" transform="translate(392.578 463.716)"/><path class="f" d="M158.51,153.31h77.415a9.393,9.393,0,0,1,9.393,9.393v2.526a9.393,9.393,0,0,1-9.393,9.393H158.51Z" transform="translate(312.192 285.058)"/><path class="f" d="M205.758,153.31H133.31v4.03h66.659v13.224H133.31v4.058h72.449a5.193,5.193,0,0,0,5.193-5.193V158.5a5.193,5.193,0,0,0-5.193-5.193Z" transform="translate(265.88 285.058)"/><rect class="k" width="68.277" height="13.224" transform="translate(402.425 442.397)"/><rect class="g" width="68.277" height="3.093" transform="translate(402.425 442.394)"/><path class="j" d="M128.92,143.57v5.25h98.3v17.14h-98.3v5.25H229.633V143.57Z" transform="translate(257.812 267.146)"/><path class="f" d="M8.514,0H74.378V27.64H8.514A8.513,8.513,0,0,1,0,19.127V8.57A8.513,8.513,0,0,1,8.514,0Z" transform="translate(561.823 438.327) rotate(180)"/><rect class="g" width="68.277" height="17.14" transform="translate(487.445 415.965)"/><rect class="j" width="68.277" height="4.03" transform="translate(487.445 415.961)"/><rect class="k" width="101.138" height="17.14" transform="translate(391.982 415.965)"/><rect class="g" width="101.138" height="4.03" transform="translate(391.982 415.961)"/><path class="j" d="M140.07,168.33v5.25h98.3v21.993h-98.3v5.25H240.783V168.33Z" transform="translate(278.303 312.688)"/><path class="f" d="M8.514,0H74.378V32.493H8.514A8.513,8.513,0,0,1,0,23.979V8.57A8.513,8.513,0,0,1,8.514,0Z" transform="translate(593.465 513.482) rotate(180)"/><rect class="g" width="68.277" height="21.993" transform="translate(519.086 486.266)"/><rect class="j" width="68.277" height="4.03" transform="translate(519.086 486.259)"/><rect class="k" width="101.138" height="21.993" transform="translate(423.623 486.266)"/><rect class="g" width="101.138" height="4.03" transform="translate(423.623 486.259)"/><path class="l" d="M218.237,115.88,111.65,222.467v93.9h.227L312.366,115.88Z" transform="translate(226.074 216.28)"/><path class="m" d="M122.15,316.369h58.458L381.1,115.88H322.639Z" transform="translate(245.37 216.28)"/><path class="n" d="M248.878,248.739l37.6-37.6V152.68L190.42,248.739Z" transform="translate(370.836 283.928)"/><path class="o" d="M157.15,206.32,140.066,86.31l-46.086-6.3L70.03,205.44Z" transform="translate(149.585 150.265)"/><path class="o" d="M89.8,192.692v13.536a29.4,29.4,0,0,1-1.135,8.144L87.5,218.516a5.335,5.335,0,0,0,5.165,6.811h29.059a1.305,1.305,0,0,0,1.362-1.107c.341-3.945-11.039-6.584-19.637-9.932-6.555-2.526-6.186-14.189-5.392-21.141a4.143,4.143,0,0,0-4.455-4.6h0a4.143,4.143,0,0,0-3.8,4.143Z" transform="translate(181.318 349.903)"/><path class="o" d="M72.224,190.811,67.57,206.277a7.151,7.151,0,0,1-.936,1.93l-3.292,4.909a5.676,5.676,0,0,0,3.008,8.513s6.669,2.327,13.536,4.6,15.863.369,15.863-1.476c0-4.115-3.859-.851-10.273-5.165a71.877,71.877,0,0,1-6.385-4.512c-5.676-4.342-.681-15.352,2.7-21.539A3.8,3.8,0,0,0,79.233,188l-1.618-.34A4.6,4.6,0,0,0,72.224,190.811Z" transform="translate(135.587 348.095)"/><path class="f" d="M82.64,127.705l51.08-4.285s5.136,37.147-7.747,104.4c-6.073,31.528-18.673,91.8-18.673,91.8a14.189,14.189,0,0,1-9.535.908s-.965-26.59-1.561-55.223c-.539-27.441-.709-56.756-2.44-66.376C90.16,179.324,82.64,127.705,82.64,127.705Z" transform="translate(172.76 230.15)"/><path class="p" d="M108.918,201.153c12.77-49.235-3.945-74.123-3.945-74.123l-22.333-2.1s7.52,51.619,11.1,71.228a314.117,314.117,0,0,1,1.873,35.671C95.836,241.478,104.8,216.988,108.918,201.153Z" transform="translate(172.76 232.889)"/><path class="f" d="M125.587,133.069c5.278,28.378,17.027,70.6-5.676,110.333s-46.4,81.047-46.4,81.047A12.969,12.969,0,0,1,65,321.611s3.973-18.02,9.734-39.048c6.555-24.064,14.9-52.357,12.515-67.114-4.427-27.668-9.535-64.5-8-82.3S122.834,118.2,125.587,133.069Z" transform="translate(140.341 225.409)"/><path class="k" d="M159.476,203.273,140.633,86.328,94.548,80,69.8,203.472a4.257,4.257,0,0,0,3.349,4.995,293.561,293.561,0,0,0,52.442,5.023c17.282,0,26.987-3.349,31.414-5.477a4.512,4.512,0,0,0,2.469-4.739Z" transform="translate(149.019 150.248)"/><path class="o" d="M77.96,154.037c-.709-3.036-1.078-6.13-1.5-7.293a17.254,17.254,0,0,0-1.22-2.015,8.8,8.8,0,0,1-1.816-3.774V135.79c0-2.5-1.22-4.37-3.717-4.37h0c-2.838,0-3.916,2.3-3.6,4.995v3.6a15.154,15.154,0,0,1-1.135,6.272,23.326,23.326,0,0,0,1.022,13.082c.766,2.441,3.888,3.945,8.173,5.676,2.072.88,5.676,1.589,4.257-.936-1.135-2.1-7.407-5.193-5.534-11.862,0-.312.4-1.135.795-1.135,1.249,0,1.476,2.7,2.072,4.058.823,1.873,2.157,2.639,2.838,2.44S78.443,156.194,77.96,154.037Z" transform="translate(139.357 244.801)"/><path class="c" d="M112.589,86.815a71.909,71.909,0,0,1-4.4,24.689C102.515,127,94,156.284,99.138,182.08c7.236,37.147,16.516,52.187,4.484,60.842s-35.132-5.676-35.813-10.613,4.512-63.992,10.358-89.617,22.22-62.431,22.22-62.431l6.953.738a5.959,5.959,0,0,1,5.278,5.874Z" transform="translate(145.393 150.736)"/><path class="q" d="M83.791,151.455c4.4-11.067,9.421-25.029,13.224-35.643A64.7,64.7,0,0,0,100.222,92.6L94.035,80s-15.75,37.43-21.6,63.055S78,166.07,83.791,151.455Z" transform="translate(151.035 150.236)"/><path class="c" d="M101.869,83.229S61.743,137.147,61.8,167.37c0,18.19,6.726,55.252,8.315,63.793a2.582,2.582,0,0,0,2.213,2.043H74.6a18.8,18.8,0,0,0,2.668-.227,3.036,3.036,0,0,0,2.582-3.065c-.227-11.351-.965-55.933,2.043-64.872,3.434-10.244,36.891-59.083,37.544-69.866S111.773,74.745,101.869,83.229Z" transform="translate(134.46 150.231)"/><path class="c" d="M90.3,81.63a85.673,85.673,0,0,1,5.221,42.084c-2.838,24.8-9.251,100.344,13.338,111.752,7.123,3.632,23.468-12.373,23.468-18.3s-5.449-25.824-10.613-43.872-17.623-89.759-17.623-89.759Z" transform="translate(186.837 153.253)"/><path class="d" d="M122.05,130.353c-.6-2.072-1.192-4.143-1.759-6.186-1.022-3.519-2.355-9.138-3.859-15.806-8.2,3.831-16.459,7.577-24.462,11.635a86.528,86.528,0,0,0-.88,12.259C101.391,131.828,111.721,131.261,122.05,130.353Z" transform="translate(188.289 202.385)"/><path class="o" d="M159.291,108.506c-1.476-4.881-9.648-2.838-18.587,0-5.392,1.646-33.543,12.486-42.567,15.892-1.334.511-1.93,0-3.292.369-2.072.539-8.939,2.469-8.088,11.975.227,2.611,1.447,2.838,2.469,5.222a6.612,6.612,0,0,0,4.086,3.065c1.731.568,2.27,2.7,3.15,2.5,2.128-.454,1.873-6.271,1.816-8.286,0-1.192-.795-6.186-.795-6.186a2.5,2.5,0,0,1,1.93-1.845c7.662-1.476,40.779-7.066,46.256-8.74C154.75,119.6,160.795,113.416,159.291,108.506Z" transform="translate(180.192 197.245)"/><path class="f" d="M83.183,64.082a17.4,17.4,0,0,1-3.32,12.032c-4.172,5.08,1.9,9.79,3.32,13.252s-.341,8.513,3.632,10.925,15.3,2.838,17.027-1.164S95.953,61.642,83.183,64.082Z" transform="translate(165.009 120.716)"/><path class="f" d="M125.7,80.992c.6,22.7-20.517,27.072-32.8,27.072S80.1,80.85,80.1,71.031,89.748,59.68,102.064,59.68c9.677,0,18.814,7.492,22.7,14.7a15.494,15.494,0,0,1,.937,6.612Z" transform="translate(168.092 112.855)"/><path class="o" d="M97.281,62.77c-10.3,0-14.189,7.321-14.331,20.858a27.612,27.612,0,0,0,4.058,13.309,10.074,10.074,0,0,1,.965,7.832L85.93,112.4c-1.532,7.094,1.845,10.982,6.811,12.4a9.705,9.705,0,0,0,7.378-1.22c2.554-1.674,2.838-5.221,2.3-8.23l-.6-2.185a5.449,5.449,0,0,1,3.973-6.726c7.917-1.731,9.053-9.989,11.181-22.7C119.16,70.262,107.667,62.77,97.281,62.77Z" transform="translate(173.329 118.54)"/><path class="f" d="M123.57,61.728,117.7,63.515a11.606,11.606,0,0,1-6.669,0L99.251,60.11c-7.123,0-18.9,4.03-17.4,14.189l1.305,7.293a6.527,6.527,0,0,0,5.874,5.335h0a2.3,2.3,0,0,0,4.512-.6h0a7.009,7.009,0,0,1,5.534-6.669,25.54,25.54,0,0,1,12.515,0,13.735,13.735,0,0,0,17.651-11.351c0-.539,0-1.078,0-1.646a4.768,4.768,0,0,0-5.676-4.938Z" transform="translate(171.076 113.643)"/><path class="o" d="M90.918,73.886c0,3.15-1.163,5.676-4.2,5.676S81.78,75.248,81.78,72.1s1.93-3.888,4.938-3.888S90.918,70.736,90.918,73.886Z" transform="translate(171.179 128.538)"/><path class="r" d="M96.874,80.5a2.355,2.355,0,0,1-2.3,2.838h0a2.355,2.355,0,0,1-2.355-2.213V71.111a1.419,1.419,0,0,1,.4-.993,1.476,1.476,0,0,1,.993-.4,1.135,1.135,0,0,1,1.107.88Z" transform="translate(190.366 131.315)"/><path class="c" d="M99.927,83.023s6.5-4.058,17.85,6.953,35.217,51.7,37.544,64.077-61.949,20.914-61.949,20.914a12.969,12.969,0,0,1-3.036-8.8s39.729-14.813,40.467-20.035-29.768-36.1-32.18-40.552C94.251,97.553,92.634,88.954,99.927,83.023Z" transform="translate(186.887 154.455)"/><path class="o" d="M93.053,113.2s-7.634,6.981-7.917,7.577c-.568,1.277.823,2.639,1.788,1.561,1.362-1.532,5.505-3.434,6.811-1.277Z" transform="translate(177.103 211.283)"/><circle class="a" cx="21.113" cy="21.113" r="21.113" transform="translate(525.023 41.678) rotate(-80.76)"/><circle class="a" cx="35.898" cy="35.898" r="35.898" transform="translate(20.886 185.514)"/><path class="a" d="M47.448,57.692a13.054,13.054,0,1,1-3.813-9.249,13.054,13.054,0,0,1,3.813,9.249Z" transform="translate(60.104 85.134)"/><path class="o" d="M225.845,224.224a30.166,30.166,0,0,0-9.081,4.484,6.357,6.357,0,0,1-4.6,1.589h-4a3.349,3.349,0,0,0-3.405,3.349h0a3.349,3.349,0,0,0,3.916,3.32,32.209,32.209,0,0,0,5.335-1.674,3.916,3.916,0,0,1,2.611,0,10.528,10.528,0,0,0,8.343-1.731,22.443,22.443,0,0,0,4.626-1.674c.936-.511,2.1-.454,2.157-1.135s-1.277-1.334-2.384-1.192c-1.986.284-4.881,1.135-5.392.369s1.759-1.986,4.484-2.838,6.584,1.93,8.513-.709C237.366,225.444,228.881,222.975,225.845,224.224Z" transform="translate(397.189 414.856)"/><path class="s" d="M252,213.624a2.838,2.838,0,0,0-3.349,1.788L233.5,260.249a3.8,3.8,0,0,0,1.192,4.172l3.519,2.838,18.219-52.414Z" transform="translate(449.636 395.858)"/><path class="j" d="M253.656,266.777a22.078,22.078,0,0,0-4.228-22.078,28.861,28.861,0,0,1-7.151-18.19,26.476,26.476,0,0,0-17.509-24.093c-5.392-1.93-21.17-7.151-21.17-7.151s8-5.392.568-5.817c-6.1-.312-17.566,5.505-19.1,18.871a29.143,29.143,0,0,1-4.824,12.628,22.05,22.05,0,0,0,7.776,31.5l1.192.624a22.277,22.277,0,0,1,11.351,26.789,16,16,0,0,0,.709,13.65,21.766,21.766,0,0,0,39.388-7.151,16.374,16.374,0,0,1,5.676-9.592A22.164,22.164,0,0,0,253.656,266.777Z" transform="translate(345.399 351.558)"/><path class="p" d="M181.909,229.82a30.223,30.223,0,0,1,1.561-16.26c1.362-3.349,3.434-6.555,6.5-7.094,6.158-1.135,22.7,40.353,25.767,49.207a2.838,2.838,0,0,0,2.412,1.958l34.309,3.746a10.386,10.386,0,0,1,.766,7.917l-39.246,6.215a9.592,9.592,0,0,1-8.513-2.838C198.737,265.377,185.087,248.719,181.909,229.82Z" transform="translate(354.317 382.812)"/><path class="o" d="M120.751,238.975a4.455,4.455,0,0,0-3.916-4.2,43.587,43.587,0,0,1-17.027-4.427c-7.832-4.569-9.989-3.15-15.835,2.838s-14.416,6.357-19.524,7.038-7.151,4.711.908,4.881c7.321.17,32.691-3.945,50.4-1.419a4.4,4.4,0,0,0,4.994-4.569Z" transform="translate(131.073 421.785)"/><path class="o" d="M128.107,222.6a4.03,4.03,0,0,0,0-4.313,46.028,46.028,0,0,1-6.669-17.566c-.738-9.024-3.122-9.989-11.351-11.351s-12.2-6.527-15.665-10.329-7.974-3.207-3.519,3.519c3.916,5.931,21.283,23.781,30.052,39.871a4.086,4.086,0,0,0,7.009.255Z" transform="translate(184.53 328.079)"/><path class="j" d="M217.107,210.729c-6.243,17.367-22.135,16.062-31.84,12.571s-3.859-17.623-1.163-25.086,12.373-10.9,22.078-7.407S219.945,203.265,217.107,210.729Z" transform="translate(351.47 351.561)"/><path class="c" d="M99.27,194.451a8.968,8.968,0,0,1,8.712-4.626s40.438,60.558,49.264,68.362,90.014,3.49,90.014,3.49l1.391,44.213s-86.354,1.674-108.375-21.34S99.27,194.451,99.27,194.451Z" transform="translate(203.322 352.201)"/><path class="q" d="M228.644,215.12s-18.7.993-39.133,1.164c-1.305.653-31.84,15.608-48.242,16.232-24.263.936-31.868-12.032-31.868-12.032a89.051,89.051,0,0,0,12.344,17.509c22.021,23.014,108.375,21.34,108.375,21.34Z" transform="translate(221.939 398.76)"/><path class="c" d="M320.2,264.976l-6.584-41.829s-13.678-16.317-48.81-5.988-57.522,22.958-74.69,24.8S79.838,258.988,79.838,258.988a11.805,11.805,0,0,0,0,10.925l187.294,1.05S302.291,271.247,320.2,264.976Z" transform="translate(165.147 396.21)"/><path class="f" d="M250.1,208.281l-.482-.255a29.711,29.711,0,0,0-31.982,2.838c-.539.426-1.022.851-1.532,1.305l-13.366,12.089a16.77,16.77,0,0,1-7.719,3.973,20.544,20.544,0,0,0-5.9,2.242h-.17c-5.676,3.093-8.513-2.838-11.039,0s-19.354-1.845-19.354-1.845-16.175,0-7.917,22.475,23.724,36.182,34.564,36.182c5.988,0,16.289-4.767,24.32-9.024a17.676,17.676,0,0,0,2.5-1.589,33.089,33.089,0,0,1,8.854-4.938l2.469-.851a19.269,19.269,0,0,1,13.167.2c5.676,2.128,14.189,2.98,17.339-8.286l3.519-42.2C257.483,216.851,253.624,209.416,250.1,208.281Z" transform="translate(293.415 379.492)"/><path class="p" d="M226.054,207.758c-3.15,1.164-7.662,6.612-11.181,11.351a64.332,64.332,0,0,0-7.407,13.763c-6.3,15.523-17.027,29.768-31.67,37.941a41.829,41.829,0,0,1-20.177,5.675c5.676,4.966,11.351,7.662,16.119,7.662,5.988,0,16.289-4.767,24.32-9.024a17.683,17.683,0,0,0,2.5-1.589,33.089,33.089,0,0,1,8.854-4.938l2.469-.851a19.269,19.269,0,0,1,13.167.2c5.676,2.128,14.189,2.98,17.339-8.286l3.519-42.2a17.935,17.935,0,0,0-4.03-9.734,16.4,16.4,0,0,0-13.82.028Z" transform="translate(306.881 382.398)"/><path class="o" d="M207.825,192.436c-9.081-3.434-14.9,1.731-19.581,13.621a26.165,26.165,0,0,0-.88,13.111A9.535,9.535,0,0,1,185.6,226.4l-4.54,5.988c-3.717,5.676-2.043,10.3,1.873,13.2A9.025,9.025,0,0,0,190,247.035c2.838-.624,4.2-3.689,4.767-6.5l.227-2.1a5.136,5.136,0,0,1,5.676-4.682c2.185.34,4.143,1.5,6.016,1.022s9.535-9.961,12.2-22.05S216.906,195.955,207.825,192.436Z" transform="translate(349.827 355.153)"/><path class="r" d="M193.015,209.935a2.213,2.213,0,0,1-3.065,1.589h0a2.214,2.214,0,0,1-1.192-2.838l3.774-8.655a1.391,1.391,0,0,1,.738-.709,1.333,1.333,0,0,1,.993,0,1.021,1.021,0,0,1,.624,1.192Z" transform="translate(367.503 369.551)"/><path class="j" d="M223.081,195.788a9.223,9.223,0,0,0-5.959-1.589,33.656,33.656,0,0,1-14.359-1.419l-.6-.227a22.22,22.22,0,0,0-15.665.255h0a6.839,6.839,0,0,0-3.576,9.365l3.235,6.5a1.164,1.164,0,0,0,2.1,0l1.022-2.838a3.036,3.036,0,0,1,3.49-1.958l1.476.284a12.682,12.682,0,0,0,5.165-.17,10.415,10.415,0,0,1,6.981.851,10.046,10.046,0,0,1,3.888,3.576,8.684,8.684,0,0,0,4.484,3.576,9.109,9.109,0,0,0,8.315-16.062Z" transform="translate(355.769 354.895)"/><path class="o" d="M188.182,202.211c-1.05,2.838-2.412,6.243-4.853,5.307s-2.838-6.867-1.93-9.648,2.838-2.838,5.307-1.93S189.232,199.458,188.182,202.211Z" transform="translate(353.437 362.547)"/><path class="t" d="M288.893,212.843a3.973,3.973,0,0,0-4.342,2.838l-17.679,50.456a1.532,1.532,0,0,1-1.419.993H220.872a5.222,5.222,0,0,0-5.221,5.25h54.656a3.519,3.519,0,0,0,3.32-2.327l18.219-52.017a3.831,3.831,0,0,0-2.951-5.193Z" transform="translate(417.203 394.51)"/><path class="u" d="M236.621,233.391a.88.88,0,0,1-.88.88h-5.193a.88.88,0,0,1,0-1.731h5.193a.88.88,0,0,1,.88.851Z" transform="translate(443.254 430.774)"/><path class="u" d="M230.214,233.649a1.277,1.277,0,1,1-1.277-1.249,1.277,1.277,0,0,1,1.277,1.249Z" transform="translate(439.275 430.517)"/><path class="u" d="M228.754,233.649a1.277,1.277,0,1,1-1.277-1.249,1.277,1.277,0,0,1,1.277,1.249Z" transform="translate(436.592 430.517)"/><path class="u" d="M259.919,232.856h-42a1.5,1.5,0,0,1,1.5-1.476h39.019A1.476,1.476,0,0,1,259.919,232.856Z" transform="translate(421.375 428.642)"/><path class="o" d="M231.562,230.473c-1.305.624-2.838,1.249-4.2,2.072a11.522,11.522,0,0,1-6.981,1.532c-2.128-.2-4.8-.284-7.917-.312a3.377,3.377,0,0,0-3.377,3.093h0a3.377,3.377,0,0,0,3.263,3.632c2.838,0,5.278-.17,7.038-.2H221.6a12.429,12.429,0,0,1,3.405.142,6.612,6.612,0,0,0,6.016-3.945c.88-1.873.993-1.362,3.178-2.242s8.513.4,8.513-1.078S234.4,229.054,231.562,230.473Z" transform="translate(405.122 426.229)"/><path class="f" d="M176.364,210.285c2.3-4.058,9.507-8.769,18.559,2.072,11.975,14.359,32.918,54.939,39.133,55.62s46.965,9.989,46.965,9.989a9.109,9.109,0,0,1,0,7.321h-56.16C214.787,285.316,165.779,228.957,176.364,210.285Z" transform="translate(342.268 381.432)"/></svg>