<svg xmlns="http://www.w3.org/2000/svg" xmlns:xlink="http://www.w3.org/1999/xlink" width="1920" height="1157" viewBox="0 0 1920 1157"><defs><style>.a{fill:#6a75ff;}.b,.c{opacity:0.5;}.b{fill:url(#a);}.c{fill:url(#b);}</style><linearGradient id="a" x1="0.593" y1="1" x2="0.3" y2="-0.065" gradientUnits="objectBoundingBox"><stop offset="0" stop-color="#5a66f5"/><stop offset="1" stop-color="#6a75ff"/></linearGradient><linearGradient id="b" x1="0.769" y1="0.142" x2="0" y2="1" xlink:href="#a"/></defs><path class="a" d="M0,0H1920V1157H0Z"/><path class="b" d="M905.866.14c-25.966,23.634-40.194,59.407-57.88,88.427-22.67,38.185-64.873,80.79-116.242,60.372-13.345-5.306-26.689-14.711-40.6-12.46-21.7,3.617-30.548,29.663-34.406,48.233-12.3,58.6-12.058,143.9-85.775,161.259C491.7,364.461,429.242,267.352,381.331,219.44,296.6,134.63,205.039,45.961,93.62.14Z" transform="translate(658.339 0.985)"/><path class="c" d="M468.6,433.509H.26V102.71H35.309a107.963,107.963,0,0,1,63.185,35.13c8.039,9.888,13.345,21.624,26.287,28.377,20.178,10.611,43.249,3.939,57.4-2.09,45.339-19.213,96.466-57.478,168.092-24.117,77.012,36.255,70.661,114.634,81.755,162.867A1024.561,1024.561,0,0,0,468.6,433.509Z" transform="translate(1.83 722.366)"/></svg>