<svg xmlns="http://www.w3.org/2000/svg" width="125.269" height="125.269" viewBox="0 0 125.269 125.269"><defs><style>.a{opacity:0.1;}.b{fill:#4e58a9;}</style></defs><g class="a" transform="translate(0)"><g transform="translate(0 0)"><circle class="b" cx="44.29" cy="44.29" r="44.29" transform="translate(0 62.634) rotate(-45)"/></g><g transform="translate(24.434 88.289)"><path class="b" d="M63.586,230h18.6a3.19,3.19,0,0,1,3.187,3.187v.394a3.19,3.19,0,0,1-3.187,3.187h-18.6a3.19,3.19,0,0,1-3.187-3.187v-.394A3.149,3.149,0,0,1,63.586,230Z" transform="translate(-60.398 -230)"/></g><g transform="translate(18.356 101.595)"><path class="b" d="M44.134,270.5H80.276a2.216,2.216,0,0,1,2.234,2.234h0a2.216,2.216,0,0,1-2.234,2.234H44.134a2.216,2.216,0,0,1-2.234-2.234h0A2.216,2.216,0,0,1,44.134,270.5Z" transform="translate(-41.9 -270.5)"/></g><g transform="translate(80.091 106.064)"><path class="b" d="M231.967,284.1h4.14a2.2,2.2,0,0,1,2.2,2.2h0a2.2,2.2,0,0,1-2.2,2.2H232a2.2,2.2,0,0,1-2.2-2.2h0A2.153,2.153,0,0,1,231.967,284.1Z" transform="translate(-229.798 -284.1)"/></g><g transform="translate(76.609 93.053)"><path class="b" d="M222.814,244.5h20.009a3.6,3.6,0,0,1,3.614,3.614h0a3.6,3.6,0,0,1-3.614,3.614H222.814a3.6,3.6,0,0,1-3.614-3.614h0A3.625,3.625,0,0,1,222.814,244.5Z" transform="translate(-219.2 -244.5)"/></g><g transform="translate(30.94 95.024)"><path class="b" d="M80.2,250.5H92.882a3.409,3.409,0,0,0-2.4,1.019,3.08,3.08,0,0,0-.986,2.267,3.3,3.3,0,0,0,3.384,3.286H80.2a3.414,3.414,0,0,0,2.4-.854,3.247,3.247,0,0,0,.986-2.366A3.352,3.352,0,0,0,80.2,250.5Z" transform="translate(-80.2 -250.5)"/></g><g transform="translate(74.506 56.254)"><path class="b" d="M218.911,132.5H251.57a6.121,6.121,0,0,1,6.111,6.111h0a6.121,6.121,0,0,1-6.111,6.111H218.911a6.121,6.121,0,0,1-6.111-6.111h0A6.1,6.1,0,0,1,218.911,132.5Z" transform="translate(-212.8 -132.5)"/></g><g transform="translate(65.044 80.305)"><path class="b" d="M187.942,205.7h48.4a3.954,3.954,0,0,1,3.943,3.943h0a3.954,3.954,0,0,1-3.943,3.943h-48.4A3.954,3.954,0,0,1,184,209.643h0A3.912,3.912,0,0,1,187.942,205.7Z" transform="translate(-183.999 -205.7)"/></g><g transform="translate(88.93 68.444)"><path class="b" d="M256.7,169.6h22.769a5.976,5.976,0,0,0-4.3,1.774,5.6,5.6,0,0,0-1.774,4.14,5.962,5.962,0,0,0,6.111,5.947H256.733a5.958,5.958,0,0,0,4.3-1.577,5.825,5.825,0,0,0,1.774-4.238A6.064,6.064,0,0,0,256.7,169.6Z" transform="translate(-256.7 -169.6)"/></g><g transform="translate(8.565 38.019)"><path class="b" d="M56.85,89.945H18.573A6.464,6.464,0,0,1,12.1,83.473h0A6.464,6.464,0,0,1,18.573,77H56.85a6.464,6.464,0,0,1,6.473,6.473h0A6.464,6.464,0,0,1,56.85,89.945Z" transform="translate(-12.1 -77)"/></g><g transform="translate(4.589 69.725)"><path class="b" d="M64.66,192.228H9.364A9.36,9.36,0,0,1,0,182.864H0A9.36,9.36,0,0,1,9.364,173.5h55.3a9.36,9.36,0,0,1,9.364,9.364h0A9.381,9.381,0,0,1,64.66,192.228Z" transform="translate(0 -173.5)"/></g><g transform="translate(64.847 25.764)"><path class="b" d="M219.081,50.017H188.558a5.146,5.146,0,0,1-5.158-5.158h0a5.146,5.146,0,0,1,5.158-5.158h30.523a5.146,5.146,0,0,1,5.158,5.158h0A5.125,5.125,0,0,1,219.081,50.017Z" transform="translate(-183.4 -39.7)"/></g><g transform="translate(29.823 18.601)"><path class="b" d="M106.8,21.58a11.285,11.285,0,0,1,1.84.131,4.336,4.336,0,0,0-4.3-3.811h-23.2a4.337,4.337,0,0,0,0,8.674H96.711A13.232,13.232,0,0,1,106.8,21.58Z" transform="translate(-76.8 -17.9)"/></g><g transform="translate(81.078 12.687)"><path class="b" d="M242.887,5.551h-7.261A2.825,2.825,0,0,1,232.8,2.726h0A2.825,2.825,0,0,1,235.626-.1h7.261a2.825,2.825,0,0,1,2.826,2.826h0A2.847,2.847,0,0,1,242.887,5.551Z" transform="translate(-232.8 0.1)"/></g></g></svg>